<?xml version="1.0" encoding="UTF-8" standalone="no"?>
<!-- Created with Inkscape (http://www.inkscape.org/) -->

<svg
   xmlns:dc="http://purl.org/dc/elements/1.1/"
   xmlns:cc="http://creativecommons.org/ns#"
   xmlns:rdf="http://www.w3.org/1999/02/22-rdf-syntax-ns#"
   xmlns:svg="http://www.w3.org/2000/svg"
   xmlns="http://www.w3.org/2000/svg"
   xmlns:xlink="http://www.w3.org/1999/xlink"
   xmlns:sodipodi="http://sodipodi.sourceforge.net/DTD/sodipodi-0.dtd"
   xmlns:inkscape="http://www.inkscape.org/namespaces/inkscape"
   version="1.1"
   width="80"
   height="45"
   id="svg3277"
   inkscape:version="0.48.2 r9819"
   sodipodi:docname="Radio_4_Logo.svg">
  <sodipodi:namedview
     pagecolor="#ffffff"
     bordercolor="#666666"
     borderopacity="1"
     objecttolerance="10"
     gridtolerance="10"
     guidetolerance="10"
     inkscape:pageopacity="0"
     inkscape:pageshadow="2"
     inkscape:window-width="1529"
     inkscape:window-height="856"
     id="namedview19"
     showgrid="false"
     inkscape:zoom="10.826406"
     inkscape:cx="43.134179"
     inkscape:cy="20.406317"
     inkscape:window-x="1836"
     inkscape:window-y="79"
     inkscape:window-maximized="0"
     inkscape:current-layer="svg3277" />
  <defs
     id="defs3279">
    <linearGradient
       x1="463.6973"
       y1="100.8403"
       x2="463.6972"
       y2="540.71918"
       id="DIAMOND_1_"
       gradientUnits="userSpaceOnUse">
      <stop
         id="stop237"
         style="stop-color:#fff4e5;stop-opacity:1"
         offset="0.0055" />
      <stop
         id="stop239"
         style="stop-color:#fff2da;stop-opacity:1"
         offset="0.0996" />
      <stop
         id="stop241"
         style="stop-color:#ffeebb;stop-opacity:1"
         offset="0.2674" />
      <stop
         id="stop243"
         style="stop-color:#ffe789;stop-opacity:1"
         offset="0.48949999" />
      <stop
         id="stop245"
         style="stop-color:#ffdd45;stop-opacity:1"
         offset="0.75400001" />
      <stop
         id="stop247"
         style="stop-color:#ffd300;stop-opacity:1"
         offset="1" />
    </linearGradient>
    <linearGradient
       x1="463.6973"
       y1="100.8403"
       x2="463.6972"
       y2="540.71918"
       id="linearGradient3275"
       xlink:href="#DIAMOND_1_"
       gradientUnits="userSpaceOnUse"
       gradientTransform="translate(-80.002571,142.9508)" />
    <linearGradient
       x1="175.21175"
       y1="20.005772"
       x2="175.21175"
       y2="39.603661"
       id="linearGradient4117"
       xlink:href="#DIAMOND_1_"
       gradientUnits="userSpaceOnUse"
       gradientTransform="matrix(22.162182,0,0,22.162182,-3499.3093,-194.26281)" />
    <linearGradient
       x1="463.6973"
       y1="100.8403"
       x2="463.6972"
       y2="540.71918"
       id="linearGradient4117-1"
       xlink:href="#DIAMOND_1_-7"
       gradientUnits="userSpaceOnUse"
       gradientTransform="translate(-893.93362,175.75322)" />
    <linearGradient
       x1="463.6973"
       y1="100.8403"
       x2="463.6972"
       y2="540.71918"
       id="DIAMOND_1_-7"
       gradientUnits="userSpaceOnUse">
      <stop
         id="stop237-4"
         style="stop-color:#fff4e5;stop-opacity:1"
         offset="0.0055" />
      <stop
         id="stop239-0"
         style="stop-color:#fff2da;stop-opacity:1"
         offset="0.0996" />
      <stop
         id="stop241-9"
         style="stop-color:#ffeebb;stop-opacity:1"
         offset="0.2674" />
      <stop
         id="stop243-4"
         style="stop-color:#ffe789;stop-opacity:1"
         offset="0.48949999" />
      <stop
         id="stop245-8"
         style="stop-color:#ffdd45;stop-opacity:1"
         offset="0.75400001" />
      <stop
         id="stop247-8"
         style="stop-color:#ffd300;stop-opacity:1"
         offset="1" />
    </linearGradient>
    <linearGradient
       inkscape:collect="always"
       xlink:href="#DIAMOND_1_-7"
       id="linearGradient3054"
       gradientUnits="userSpaceOnUse"
       gradientTransform="translate(-893.93362,175.75322)"
       x1="463.6973"
       y1="100.8403"
       x2="463.6972"
       y2="540.71918" />
    <linearGradient
       inkscape:collect="always"
       xlink:href="#DIAMOND_1_-7"
       id="linearGradient3059"
       gradientUnits="userSpaceOnUse"
       gradientTransform="matrix(1.7840329,0,0,1.7840329,-269.67499,-28.17273)"
       x1="463.6973"
       y1="100.8403"
       x2="463.6972"
       y2="540.71918" />
    <linearGradient
       inkscape:collect="always"
       xlink:href="#DIAMOND_1_"
       id="linearGradient3068"
       gradientUnits="userSpaceOnUse"
       gradientTransform="matrix(22.162182,0,0,22.162182,-3461.3805,-194.26276)"
       x1="175.21175"
       y1="20.005772"
       x2="175.21175"
       y2="39.603661" />
  </defs>
  <metadata
     id="metadata3282">
    <rdf:RDF>
      <cc:Work
         rdf:about="">
        <dc:format>image/svg+xml</dc:format>
        <dc:type
           rdf:resource="http://purl.org/dc/dcmitype/StillImage" />
        <dc:title />
      </cc:Work>
    </rdf:RDF>
  </metadata>
  <g
     id="g3061"
     transform="translate(-3.0532254,-4.1417623e-6)">
    <g
       id="layer1"
       transform="matrix(0.04512191,0,0,0.04512191,13.268526,13.90765)">
      <g
         id="g4112"
         transform="matrix(1.7840329,0,0,1.7840329,-27.763648,-586.02134)">
        <path
           inkscape:connector-curvature="0"
           style="fill:url(#linearGradient3068)"
           id="DIAMOND_8_"
           d="m 592.77943,437.6098 -183.306,-182.975 c -14.503,-14.458 -37.896,-14.458 -52.301,0 l -182.65101,182.975 c -14.428,14.412 -14.384,37.835 0.106,52.281 l 183.34101,182.951 c 14.458,14.438 37.884,14.438 52.259,0 l 182.67,-182.951 c 14.403,-14.446 14.334,-37.87 -0.118,-52.281 z" />
        <path
           inkscape:connector-curvature="0"
           style="fill:#565b5f"
           id="path252"
           d="m 300.6875,186.78125 c -3.98081,0.12923 -7.94563,1.01913 -11.84375,2.65625 -4.456,1.873 -8.66925,4.8165 -12.65625,8.8125 -3.728,3.737 -6.514,7.81075 -8.375,12.21875 -1.86,4.411 -2.781,8.88375 -2.75,13.46875 0.032,4.59 1.024,9.14925 3,13.65625 1.975,4.508 4.9205,8.71075 8.8125,12.59375 3.893,3.883 8.0755,6.78075 12.5625,8.71875 4.487,1.939 9.03275,2.92375 13.59375,2.96875 4.563,0.048 9.03875,-0.8405 13.46875,-2.6875 4.429,-1.847 8.5325,-4.6485 12.3125,-8.4375 3.677,-3.685 6.4495,-7.74725 8.3125,-12.15625 1.86,-4.409 2.781,-8.912 2.75,-13.5 -0.032,-4.588 -1.01875,-9.1535 -2.96875,-13.6875 -1.95,-4.532 -4.88825,-8.742 -8.78125,-12.625 -3.84,-3.831 -7.9295,-6.73825 -12.3125,-8.78125 -4.382,-2.042 -8.8765,-3.12075 -13.4375,-3.21875 -0.57038,-0.0124 -1.11881,-0.0185 -1.6875,0 z m -0.90625,11.75 c 0.39532,0.002 0.78888,0.009 1.1875,0.0312 3.187,0.177 6.36825,1.002 9.53125,2.5 3.164,1.5 6.1355,3.67375 8.9375,6.46875 2.959,2.952 5.17525,6.04425 6.65625,9.28125 1.482,3.24 2.266,6.43175 2.375,9.59375 0.106,3.162 -0.4015,6.195 -1.5625,9.125 -1.164,2.931 -2.92,5.57025 -5.25,7.90625 -2.485,2.491 -5.20325,4.33625 -8.15625,5.53125 -2.954,1.196 -5.98475,1.7145 -9.09375,1.5625 -3.111,-0.152 -6.27875,-0.974 -9.46875,-2.5 -3.189,-1.525 -6.25975,-3.76675 -9.21875,-6.71875 -2.801,-2.795 -4.96075,-5.7765 -6.46875,-8.9375 -1.507,-3.159 -2.3515,-6.338 -2.5625,-9.5 -0.211,-3.161 0.239,-6.242 1.375,-9.25 1.138,-3.007 2.9525,-5.759 5.4375,-8.25 2.485,-2.491 5.23875,-4.28725 8.21875,-5.40625 2.6075,-0.97737 5.29527,-1.45084 8.0625,-1.4375 z m -56.59375,36.125 c -1.556,0.157 -2.935,0.83825 -4.125,2.03125 -1.191,1.193 -1.8355,2.5585 -1.9375,4.0625 -0.104,1.503 0.411,2.788 1.5,3.875 l 43.96875,43.875 c 1.039,1.036 2.35125,1.52375 3.90625,1.46875 1.554,-0.054 2.933,-0.64975 4.125,-1.84375 1.19,-1.194 1.8345,-2.61275 1.9375,-4.21875 0.102,-1.607 -0.36725,-2.93175 -1.40625,-3.96875 l -44,-43.875 c -1.09,-1.086 -2.41575,-1.56525 -3.96875,-1.40625 z m -15.78125,28.15625 c -4.432,0.031 -8.8355,1.0355 -13.1875,3.0625 -4.353,2.025 -8.516,5.03525 -12.5,9.03125 l -10.34375,10.375 c -1.192,1.195 -1.799,2.57625 -1.875,4.15625 -0.076,1.582 0.3995,2.9015 1.4375,3.9375 l 43.1875,43.09375 c 1.039,1.037 2.35125,1.51225 3.90625,1.40625 1.555,-0.105 2.933,-0.77375 4.125,-1.96875 l 10.25,-10.28125 c 3.986,-3.996 6.98925,-8.1795 9.03125,-12.5625 2.041,-4.383 3.079,-8.7805 3.125,-13.1875 0.046,-4.406 -0.89575,-8.76775 -2.84375,-13.09375 -1.95,-4.326 -4.857,-8.4295 -8.75,-12.3125 -3.944,-3.935 -8.1055,-6.8725 -12.4375,-8.8125 -4.332,-1.938 -8.692,-2.87375 -13.125,-2.84375 z m -2.125,11.09375 c 0.37291,-0.012 0.75075,-0.0108 1.125,0 5.987,0.174 11.9685,3.26375 17.9375,9.21875 5.916,5.902 8.916,11.86925 9,17.90625 0.086,6.042 -2.6475,11.822 -8.1875,17.375 l -5.96875,6 -36.28125,-36.1875 6.0625,-6.0625 c 5.29031,-5.30344 10.7188,-8.07081 16.3125,-8.25 z M 164.9375,314.125 c -0.60237,-0.0186 -1.24,0.0398 -1.875,0.15625 -1.269,0.237 -2.33975,0.77425 -3.21875,1.65625 -0.881,0.883 -1.51725,1.92675 -1.90625,3.09375 -0.387,1.167 -0.344,2.34025 0.125,3.53125 l 25.1875,62.875 c 0.259,0.779 0.73325,1.5145 1.40625,2.1875 0.987,0.984 2.19575,1.37675 3.59375,1.21875 1.4,-0.157 2.63175,-0.785 3.71875,-1.875 0.881,-0.883 1.50775,-1.85275 1.84375,-2.96875 0.335,-1.114 0.291,-2.15975 -0.125,-3.09375 l -5.625,-13.65625 21.5,-21.5625 13.09375,5.71875 c 0.987,0.466 2.09975,0.52325 3.34375,0.15625 1.242,-0.364 2.25525,-0.93975 3.03125,-1.71875 1.449,-1.453 2.104,-2.89175 2,-4.34375 -0.106,-1.45 -0.57525,-2.6085 -1.40625,-3.4375 -0.467,-0.465 -1.15975,-0.8975 -2.09375,-1.3125 L 166.6875,314.375 c -0.5705,-0.154 -1.14763,-0.23138 -1.75,-0.25 z m 5.34375,12.6875 c 4.93,2.432 9.848,4.87525 14.75,7.28125 4.903,2.403 9.88475,4.77825 14.96875,7.15625 l -16.15625,16.1875 -13.5625,-30.625 z m 271.1875,13.625 c -1.867,0.05 -4.0105,0.495 -6.4375,1.375 -2.426,0.883 -4.67575,2.4065 -6.71875,4.5625 0,0 -153.07475,150.44575 -153.71875,151.09375 -1.115,1.293 -1.8125,2.9735 -1.8125,4.8125 0,4.078 3.299,7.40625 7.375,7.40625 0.932,0 83.59375,-0.0312 83.59375,-0.0312 l -13.71875,64.8125 c -1.166,5.834 1.48075,9.246 7.34375,10.375 5.861,1.125 12.397,1.569 19.625,1.375 5.594,-0.15 11.368,-0.0355 17.875,-1.0625 6.333,-0.998 9.6875,-4.998 10.6875,-9.125 l 14.0625,-66.34375 38.3125,-0.0312 c 2.583,0 4.074,-1.79275 5.5,-5.21875 1.424,-3.424 2.08075,-7.2405 1.96875,-11.4375 -0.052,-1.865 -0.4265,-3.5785 -0.9375,-5.3125 -0.516,-1.736 -2.42775,-2.96875 -4.09375,-2.96875 l -36.90625,0 L 453.375,348.625 c 0.584,-2.833 -0.2165,-5.01675 -2.9375,-6.34375 -2.722,-1.328 -5.70475,-1.93075 -8.96875,-1.84375 z m -308.125,11.75 c -2.72,0.031 -5.42475,0.60175 -8.09375,1.71875 -2.669,1.118 -5.11775,2.80125 -7.34375,5.03125 l -16.84375,16.875 c -1.192001,1.194 -1.824,2.57 -1.875,4.125 -0.05,1.555 0.461999,2.87025 1.5,3.90625 L 144.21875,427.25 c 1.039,1.036 2.321,1.52575 3.875,1.46875 1.555,-0.053 2.933,-0.681 4.125,-1.875 1.19,-1.194 1.8345,-2.5815 1.9375,-4.1875 0.102,-1.606 -0.36625,-2.93275 -1.40625,-3.96875 l -17.6875,-17.625 8.40625,-8.40625 31.25,7.5625 c 0.933,0.208 1.93175,0.1985 2.96875,-0.0625 1.036,-0.261 2.04725,-0.888 3.03125,-1.875 1.189,-0.986 1.87525,-2.2565 2.03125,-3.8125 0.153,-1.555 -0.30475,-2.87025 -1.34375,-3.90625 -0.258,-0.258 -0.73025,-0.54325 -1.40625,-0.90625 -0.673,-0.361 -1.2205,-0.572 -1.6875,-0.625 l -27.3125,-5.5 c 1.138,-1.866 1.95375,-3.8825 2.46875,-6.0625 0.517,-2.177 0.685,-4.40025 0.5,-6.65625 -0.183,-2.253 -0.7505,-4.47925 -1.6875,-6.65625 -0.936,-2.176 -2.26525,-4.14525 -4.03125,-5.90625 -2.024,-2.019 -4.3425,-3.5265 -6.9375,-4.5625 -2.594,-1.033 -5.24675,-1.528 -7.96875,-1.5 z m -1.75,10.53125 c 0.32593,-0.009 0.66637,0.003 1,0.0312 2.669,0.232 5.12325,1.50325 7.40625,3.78125 2.545,2.539 3.73425,5.2125 3.53125,8.0625 -0.204,2.853 -1.377,5.34175 -3.5,7.46875 l -11.96875,12 -15.5625,-15.5312 12.8125,-12.84375 c 1.90313,-1.9075 3.99971,-2.90593 6.28125,-2.96875 z M 384.1875,413.5 367.65625,484.625 310.96875,484.6875 384.1875,413.5 z" />
        <path
           inkscape:connector-curvature="0"
           style="fill:#ffd300"
           id="path265"
           d="m 383.28543,243.7918 c 9.462,0 18.936,3.614 26.188,10.843 l 183.307,182.975 c 14.451,14.411 14.52,37.834 0.114,52.28 l -182.668,182.951 c -7.188,7.22 -16.638,10.829 -26.099,10.829 -9.46,0 -18.931,-3.609 -26.16,-10.829 l -183.34,-182.95 c -14.49,-14.446 -14.534,-37.869 -0.106,-52.28 l 182.652,-182.975 c 7.201,-7.23 16.65,-10.844 26.112,-10.844 m 0,5 c -8.534,0 -16.55,3.329 -22.571,9.372 l -182.655,182.978 c -6.022,6.016 -9.333,14.017 -9.33,22.535 0.004,8.563 3.352,16.615 9.428,22.672 l 183.342,182.952 c 6.05,6.042 14.085,9.368 22.628,9.368 8.538,0 16.548,-3.322 22.556,-9.356 l 182.673,-182.956 c 12.433,-12.468 12.386,-32.749 -0.106,-45.207 l -183.31,-182.976 c -6.068,-6.049 -14.115,-9.382 -22.655,-9.382 l 0,0 z" />
      </g>
    </g>
  </g>
</svg>
