<?xml version="1.0" encoding="UTF-8" standalone="no"?>
<!-- Created with Inkscape (http://www.inkscape.org/) -->

<svg
   xmlns:dc="http://purl.org/dc/elements/1.1/"
   xmlns:cc="http://creativecommons.org/ns#"
   xmlns:rdf="http://www.w3.org/1999/02/22-rdf-syntax-ns#"
   xmlns:svg="http://www.w3.org/2000/svg"
   xmlns="http://www.w3.org/2000/svg"
   xmlns:xlink="http://www.w3.org/1999/xlink"
   xmlns:sodipodi="http://sodipodi.sourceforge.net/DTD/sodipodi-0.dtd"
   xmlns:inkscape="http://www.inkscape.org/namespaces/inkscape"
   version="1.1"
   width="80"
   height="45"
   id="svg3355"
   inkscape:version="0.48.2 r9819"
   sodipodi:docname="Radio_2_Logo.svg">
  <sodipodi:namedview
     pagecolor="#ffffff"
     bordercolor="#666666"
     borderopacity="1"
     objecttolerance="10"
     gridtolerance="10"
     guidetolerance="10"
     inkscape:pageopacity="0"
     inkscape:pageshadow="2"
     inkscape:window-width="1855"
     inkscape:window-height="1058"
     id="namedview56"
     showgrid="false"
     inkscape:zoom="7.6549593"
     inkscape:cx="19.759407"
     inkscape:cy="26.878678"
     inkscape:window-x="1737"
     inkscape:window-y="-8"
     inkscape:window-maximized="1"
     inkscape:current-layer="svg3355" />
  <defs
     id="defs3357">
    <linearGradient
       x1="446.69531"
       y1="554.71881"
       x2="446.69531"
       y2="114.8413"
       id="DIAMOND_1_"
       gradientUnits="userSpaceOnUse">
      <stop
         id="stop237"
         style="stop-color:#b6101d;stop-opacity:1"
         offset="0" />
      <stop
         id="stop239"
         style="stop-color:#c6091e;stop-opacity:1"
         offset="0.15970001" />
      <stop
         id="stop241"
         style="stop-color:#d50220;stop-opacity:1"
         offset="0.36489999" />
      <stop
         id="stop243"
         style="stop-color:#da0020;stop-opacity:1"
         offset="0.53689998" />
    </linearGradient>
    <linearGradient
       x1="446.66211"
       y1="114.8408"
       x2="446.66211"
       y2="379.8335"
       id="DIAMOND_3_"
       gradientUnits="userSpaceOnUse"
       gradientTransform="translate(-64.430455,226.09377)">
      <stop
         id="stop259"
         style="stop-color:#fdedec;stop-opacity:1"
         offset="0" />
      <stop
         id="stop261"
         style="stop-color:#fce8e6;stop-opacity:1"
         offset="0.0744" />
      <stop
         id="stop263"
         style="stop-color:#fad8d6;stop-opacity:1"
         offset="0.1719" />
      <stop
         id="stop265"
         style="stop-color:#f6bfbb;stop-opacity:1"
         offset="0.28209999" />
      <stop
         id="stop267"
         style="stop-color:#f19c95;stop-opacity:1"
         offset="0.4007" />
      <stop
         id="stop269"
         style="stop-color:#ec786f;stop-opacity:1"
         offset="0.50309998" />
      <stop
         id="stop271"
         style="stop-color:#dc282f;stop-opacity:1"
         offset="1" />
    </linearGradient>
    <linearGradient
       x1="446.69531"
       y1="554.71881"
       x2="446.69531"
       y2="114.8413"
       id="SVGID_1_"
       gradientUnits="userSpaceOnUse">
      <stop
         id="stop276"
         style="stop-color:#9a161d;stop-opacity:1"
         offset="0" />
      <stop
         id="stop278"
         style="stop-color:#a6111f;stop-opacity:1"
         offset="0.1084" />
      <stop
         id="stop280"
         style="stop-color:#be0822;stop-opacity:1"
         offset="0.3655" />
      <stop
         id="stop282"
         style="stop-color:#cd0223;stop-opacity:1"
         offset="0.60369998" />
      <stop
         id="stop284"
         style="stop-color:#d20024;stop-opacity:1"
         offset="0.80299997" />
    </linearGradient>
    <linearGradient
       x1="351.1777"
       y1="324.90631"
       x2="543.28998"
       y2="324.90631"
       id="SVGID_2_"
       gradientUnits="userSpaceOnUse">
      <stop
         id="stop291"
         style="stop-color:#d20024;stop-opacity:1"
         offset="0" />
      <stop
         id="stop293"
         style="stop-color:#c20622;stop-opacity:1"
         offset="0.2406" />
      <stop
         id="stop295"
         style="stop-color:#a6101e;stop-opacity:1"
         offset="0.71990001" />
      <stop
         id="stop297"
         style="stop-color:#9c141c;stop-opacity:1"
         offset="1" />
    </linearGradient>
    <linearGradient
       x1="446.69531"
       y1="554.71881"
       x2="446.69531"
       y2="114.8413"
       id="linearGradient3353"
       xlink:href="#DIAMOND_1_"
       gradientUnits="userSpaceOnUse"
       gradientTransform="translate(-64.430455,226.09377)" />
    <linearGradient
       x1="446.69531"
       y1="554.71881"
       x2="446.69531"
       y2="114.8413"
       id="linearGradient4258"
       xlink:href="#SVGID_1_"
       gradientUnits="userSpaceOnUse" />
    <linearGradient
       x1="446.69531"
       y1="554.71881"
       x2="446.69531"
       y2="114.8413"
       id="linearGradient3327"
       gradientUnits="userSpaceOnUse">
      <stop
         id="stop3329"
         style="stop-color:#9a161d;stop-opacity:1"
         offset="0" />
      <stop
         id="stop3331"
         style="stop-color:#a6111f;stop-opacity:1"
         offset="0.1084" />
      <stop
         id="stop3333"
         style="stop-color:#be0822;stop-opacity:1"
         offset="0.3655" />
      <stop
         id="stop3335"
         style="stop-color:#cd0223;stop-opacity:1"
         offset="0.60369998" />
      <stop
         id="stop3337"
         style="stop-color:#d20024;stop-opacity:1"
         offset="0.80299997" />
    </linearGradient>
    <linearGradient
       x1="446.69531"
       y1="554.71881"
       x2="446.69531"
       y2="114.8413"
       id="linearGradient4267"
       xlink:href="#SVGID_1_"
       gradientUnits="userSpaceOnUse"
       gradientTransform="translate(-64.430455,226.09377)" />
    <linearGradient
       x1="446.69531"
       y1="554.71881"
       x2="446.69531"
       y2="114.8413"
       id="linearGradient4285"
       xlink:href="#DIAMOND_1_"
       gradientUnits="userSpaceOnUse"
       gradientTransform="translate(-64.430455,226.09377)" />
    <linearGradient
       x1="446.66211"
       y1="114.8408"
       x2="446.66211"
       y2="379.8335"
       id="linearGradient4287"
       xlink:href="#DIAMOND_3_"
       gradientUnits="userSpaceOnUse"
       gradientTransform="translate(-64.430455,226.09377)" />
    <linearGradient
       x1="446.69531"
       y1="554.71881"
       x2="446.69531"
       y2="114.8413"
       id="linearGradient4289"
       xlink:href="#SVGID_1_"
       gradientUnits="userSpaceOnUse"
       gradientTransform="translate(-64.430455,226.09377)" />
    <linearGradient
       x1="351.1777"
       y1="324.90631"
       x2="543.28998"
       y2="324.90631"
       id="linearGradient4291"
       xlink:href="#SVGID_2_"
       gradientUnits="userSpaceOnUse" />
    <linearGradient
       inkscape:collect="always"
       xlink:href="#DIAMOND_1_"
       id="linearGradient3494"
       gradientUnits="userSpaceOnUse"
       gradientTransform="translate(-64.430455,226.09377)"
       x1="446.69531"
       y1="554.71881"
       x2="446.69531"
       y2="114.8413" />
    <linearGradient
       inkscape:collect="always"
       xlink:href="#DIAMOND_3_"
       id="linearGradient3496"
       gradientUnits="userSpaceOnUse"
       gradientTransform="translate(-64.430455,226.09377)"
       x1="446.66211"
       y1="114.8408"
       x2="446.66211"
       y2="379.8335" />
    <linearGradient
       inkscape:collect="always"
       xlink:href="#SVGID_1_"
       id="linearGradient3498"
       gradientUnits="userSpaceOnUse"
       gradientTransform="translate(-64.430455,226.09377)"
       x1="446.69531"
       y1="554.71881"
       x2="446.69531"
       y2="114.8413" />
    <linearGradient
       inkscape:collect="always"
       xlink:href="#SVGID_2_"
       id="linearGradient3500"
       gradientUnits="userSpaceOnUse"
       x1="351.1777"
       y1="324.90631"
       x2="543.28998"
       y2="324.90631" />
    <linearGradient
       inkscape:collect="always"
       xlink:href="#DIAMOND_1_"
       id="linearGradient3515"
       gradientUnits="userSpaceOnUse"
       gradientTransform="translate(-64.430455,226.09377)"
       x1="446.69531"
       y1="554.71881"
       x2="446.69531"
       y2="114.8413" />
    <linearGradient
       inkscape:collect="always"
       xlink:href="#DIAMOND_3_"
       id="linearGradient3517"
       gradientUnits="userSpaceOnUse"
       gradientTransform="translate(-64.430455,226.09377)"
       x1="446.66211"
       y1="114.8408"
       x2="446.66211"
       y2="379.8335" />
    <linearGradient
       inkscape:collect="always"
       xlink:href="#SVGID_1_"
       id="linearGradient3519"
       gradientUnits="userSpaceOnUse"
       gradientTransform="translate(-64.430455,226.09377)"
       x1="446.69531"
       y1="554.71881"
       x2="446.69531"
       y2="114.8413" />
    <linearGradient
       inkscape:collect="always"
       xlink:href="#SVGID_2_"
       id="linearGradient3521"
       gradientUnits="userSpaceOnUse"
       x1="351.1777"
       y1="324.90631"
       x2="543.28998"
       y2="324.90631" />
    <linearGradient
       inkscape:collect="always"
       xlink:href="#SVGID_1_"
       id="linearGradient3532"
       gradientUnits="userSpaceOnUse"
       gradientTransform="matrix(1.7841092,0,0,1.7841092,-239.39688,-53.130278)"
       x1="446.69531"
       y1="554.71881"
       x2="446.69531"
       y2="114.8413" />
    <linearGradient
       inkscape:collect="always"
       xlink:href="#DIAMOND_3_"
       id="linearGradient3535"
       gradientUnits="userSpaceOnUse"
       gradientTransform="matrix(1.7841092,0,0,1.7841092,-239.39688,-53.130278)"
       x1="154.99208"
       y1="33.816425"
       x2="154.99208"
       y2="45.685089" />
    <linearGradient
       inkscape:collect="always"
       xlink:href="#DIAMOND_1_"
       id="linearGradient3539"
       gradientUnits="userSpaceOnUse"
       gradientTransform="matrix(1.7841092,0,0,1.7841092,-239.39688,-53.130305)"
       x1="446.69531"
       y1="554.71881"
       x2="446.69531"
       y2="114.8413" />
    <linearGradient
       inkscape:collect="always"
       xlink:href="#DIAMOND_1_"
       id="linearGradient3567"
       gradientUnits="userSpaceOnUse"
       gradientTransform="matrix(1.7841092,0,0,1.7841092,-239.3969,-53.130308)"
       x1="446.69531"
       y1="554.71881"
       x2="446.69531"
       y2="114.8413" />
    <linearGradient
       inkscape:collect="always"
       xlink:href="#DIAMOND_3_"
       id="linearGradient3569"
       gradientUnits="userSpaceOnUse"
       gradientTransform="matrix(1.7841092,0,0,1.7841092,-239.3969,-53.130308)"
       x1="446.66211"
       y1="114.8408"
       x2="446.66211"
       y2="379.8335" />
    <linearGradient
       inkscape:collect="always"
       xlink:href="#SVGID_1_"
       id="linearGradient3571"
       gradientUnits="userSpaceOnUse"
       gradientTransform="matrix(1.7841092,0,0,1.7841092,-239.3969,-53.130308)"
       x1="446.69531"
       y1="554.71881"
       x2="446.69531"
       y2="114.8413" />
    <linearGradient
       inkscape:collect="always"
       xlink:href="#SVGID_2_"
       id="linearGradient3573"
       gradientUnits="userSpaceOnUse"
       x1="351.1777"
       y1="324.90631"
       x2="543.28998"
       y2="324.90631"
       gradientTransform="translate(-545.93581,527.74234)" />
    <linearGradient
       inkscape:collect="always"
       xlink:href="#SVGID_2_"
       id="linearGradient3575"
       gradientUnits="userSpaceOnUse"
       x1="351.1777"
       y1="324.90631"
       x2="543.28998"
       y2="324.90631"
       gradientTransform="matrix(22.163714,0,0,22.163714,-3022.0979,-633.28112)" />
  </defs>
  <metadata
     id="metadata3360">
    <rdf:RDF>
      <cc:Work
         rdf:about="">
        <dc:format>image/svg+xml</dc:format>
        <dc:type
           rdf:resource="http://purl.org/dc/dcmitype/StillImage" />
        <dc:title />
      </cc:Work>
    </rdf:RDF>
  </metadata>
  <path
     d="M 56.660877,22.692959 41.905321,7.9640447 c -1.167526,-1.1638214 -3.050508,-1.1638214 -4.210066,0 L 22.992345,22.692959 c -1.161409,1.160035 -1.157786,3.045518 0.0085,4.20837 l 14.758292,14.726906 c 1.163823,1.162292 3.049542,1.162292 4.206684,0 l 14.7042,-14.726906 c 1.159637,-1.162852 1.154083,-3.048335 -0.0092,-4.20837 z"
     id="DIAMOND"
     style="fill:#c10b1e;fill-opacity:1"
     inkscape:connector-curvature="0" />
  <path
     d="m 33.283461,2.5005995 c -0.367226,-0.008 -0.73061,0.065778 -1.089223,0.2163377 -0.358613,0.1507732 -0.697929,0.3851997 -1.018788,0.7068617 -0.300013,0.3007376 -0.524436,0.6288263 -0.674161,0.9835727 -0.149725,0.3549864 -0.223862,0.7175462 -0.221366,1.0867103 0.0025,0.3693953 0.08251,0.733964 0.24149,1.0967637 0.158982,0.3628798 0.396004,0.7011907 0.709378,1.0137593 0.313294,0.3125687 0.650213,0.5483463 1.011242,0.7043462 0.361189,0.1560888 0.724673,0.235351 1.091738,0.2389776 0.367228,0.00356 0.730026,-0.067644 1.086708,-0.2163376 0.35644,-0.1486754 0.68692,-0.376702 0.991117,-0.6817062 0.295907,-0.2966309 0.519245,-0.6211907 0.669131,-0.976026 0.149724,-0.3549064 0.221346,-0.7173862 0.21885,-1.0867103 C 36.296999,5.2179932 36.217488,4.8503224 36.060602,4.4853537 35.903633,4.1205362 35.669629,3.7816476 35.356255,3.4690789 35.047147,3.1606969 34.71544,2.9240748 34.362622,2.7597016 34.009805,2.5953284 33.650607,2.5085729 33.283461,2.5005995 z m -0.211304,0.9458394 c 0.03181,1.6e-4 0.06351,7.289e-4 0.09559,0.00267 0.256624,0.014489 0.512543,0.083111 0.767235,0.2037509 0.254612,0.1207466 0.496324,0.2931287 0.721956,0.5182041 0.238109,0.2374665 0.416592,0.4865419 0.535808,0.7471106 0.119295,0.2608087 0.182486,0.517813 0.191179,0.7722662 0.0085,0.2545331 -0.03475,0.5011907 -0.128291,0.7370483 -0.09362,0.2359344 -0.232536,0.445952 -0.420093,0.6339074 C 34.635586,7.2619118 34.416696,7.410454 34.178988,7.5066495 33.941281,7.6029249 33.697234,7.6470938 33.44697,7.6349427 33.196545,7.622676 32.941551,7.5540539 32.684765,7.4311828 32.427981,7.3084274 32.180795,7.1278853 31.942685,6.8903388 31.717053,6.6652722 31.5432,6.4253524 31.421972,6.1708993 31.300582,5.916615 31.232764,5.6633085 31.215698,5.4086953 31.198711,5.1543311 31.234854,4.9062335 31.326381,4.6641003 31.417826,4.4220471 31.564048,4.2005184 31.764083,4.000003 31.964118,3.7994075 32.183271,3.6548921 32.423151,3.5648121 32.632906,3.4860566 32.849444,3.44555 33.072157,3.44659 z m -4.507824,2.9079536 c -0.01506,1.77e-5 -0.02964,8.888e-4 -0.04528,0.00267 -0.125254,0.012533 -0.236259,0.067467 -0.33205,0.163511 -0.09587,0.096116 -0.147833,0.2035199 -0.155962,0.3245065 -0.0083,0.1210666 0.03057,0.226942 0.11823,0.3144353 l 3.54186,3.5318017 c 0.08356,0.08338 0.186754,0.122738 0.311926,0.118231 0.125172,-0.0044 0.236178,-0.05484 0.33205,-0.150933 0.09579,-0.09604 0.147753,-0.21032 0.155963,-0.3396 0.0083,-0.129271 -0.02957,-0.233555 -0.113199,-0.316951 L 28.838525,6.470259 C 28.761825,6.393726 28.669756,6.3543836 28.564332,6.3545436 z m -1.31562,2.2664873 c -0.356682,0.00267 -0.71123,0.085867 -1.061552,0.2490309 C 25.836919,9.033084 25.50181,9.2753949 25.18095,9.5969058 l -0.832639,0.8326392 c -0.09587,0.09619 -0.144814,0.207458 -0.150932,0.33456 -0.0062,0.127351 0.03216,0.233644 0.115714,0.31696 l 3.476458,3.468913 c 0.08364,0.08347 0.189187,0.121724 0.314441,0.113191 0.125173,-0.008 0.236177,-0.06231 0.332049,-0.158471 l 0.825093,-0.825093 c 0.32078,-0.321671 0.562613,-0.660942 0.726987,-1.013759 0.164374,-0.352738 0.24785,-0.704373 0.251553,-1.059039 0.0036,-0.354667 -0.07203,-0.708213 -0.228913,-1.056524 C 29.853872,10.202141 29.617272,9.8717412 29.303898,9.5591725 28.986419,9.2424972 28.653946,9.0059551 28.305234,8.8497952 27.956682,8.6938664 27.605475,8.618462 27.248713,8.6208798 z m -0.171057,0.8955283 c 0.03002,-8.889e-4 0.06044,-8.622e-4 0.09056,0 0.481933,0.013955 0.963587,0.2603642 1.443912,0.7395639 0.476219,0.475093 0.71763,0.955359 0.724472,1.441395 0.0068,0.486204 -0.213197,0.951634 -0.659068,1.39863 l -0.480466,0.482986 -2.920527,-2.912985 0.488013,-0.488008 C 26.19033,9.7511546 26.627457,9.530897 27.077656,9.5164081 z m -4.857482,3.2349669 c -0.04851,-0.0018 -0.09734,0.0036 -0.148416,0.01253 -0.10215,0.01902 -0.190777,0.0648 -0.261614,0.13584 -0.07083,0.07111 -0.119698,0.152578 -0.150932,0.246515 -0.03115,0.09386 -0.03012,0.188462 0.0076,0.284258 l 2.030029,5.061241 c 0.02093,0.06267 0.05651,0.122071 0.110684,0.176089 0.07945,0.07929 0.17667,0.110817 0.289285,0.0981 0.112615,-0.01262 0.211848,-0.0632 0.299348,-0.150924 0.07084,-0.07102 0.121288,-0.149307 0.148416,-0.238978 0.02697,-0.08975 0.02342,-0.173777 -0.01006,-0.24904 l -0.452795,-1.099279 1.730683,-1.735714 1.054005,0.460337 c 0.07945,0.03751 0.169023,0.04204 0.269161,0.01253 0.09998,-0.02933 0.18146,-0.07573 0.244006,-0.138356 0.11664,-0.11696 0.169447,-0.232853 0.160994,-0.349653 -0.0085,-0.11672 -0.0463,-0.209982 -0.113198,-0.276711 -0.03767,-0.03751 -0.09336,-0.07227 -0.168541,-0.105653 l -4.897772,-2.120581 c -0.04592,-0.01244 -0.09235,-0.02116 -0.14087,-0.02267 z m 0.430157,1.023821 c 0.396768,0.19568 0.792812,0.39 1.187328,0.5836 0.394595,0.193511 0.795772,0.384711 1.204937,0.576053 l -1.300528,1.303048 -1.091737,-2.462701 z m -2.973354,2.040088 c -0.219032,0.0027 -0.436755,0.04835 -0.65152,0.138355 -0.214847,0.08999 -0.409448,0.225413 -0.588634,0.404995 l -1.358385,1.358391 c -0.09595,0.0962 -0.14431,0.20703 -0.148416,0.332044 -0.0041,0.125253 0.03468,0.231128 0.118231,0.314444 l 3.504128,3.494069 c 0.08356,0.08338 0.186753,0.122737 0.311925,0.118231 0.125172,-0.0044 0.236178,-0.05476 0.33205,-0.150934 0.09579,-0.09604 0.147751,-0.210239 0.155962,-0.339599 0.0083,-0.12928 -0.02956,-0.233565 -0.113199,-0.316951 l -1.421272,-1.418764 0.674161,-0.676675 2.515527,0.608755 c 0.07518,0.01671 0.155499,0.016 0.238975,-0.0053 0.08331,-0.02098 0.164796,-0.07147 0.244006,-0.150924 0.09595,-0.07947 0.148678,-0.181645 0.160993,-0.306898 0.0124,-0.125173 -0.02202,-0.230969 -0.105652,-0.314444 -0.02084,-0.02089 -0.05894,-0.04631 -0.113198,-0.07547 -0.05418,-0.02907 -0.100762,-0.04347 -0.138354,-0.04782 L 21.09825,18.338061 c 0.09161,-0.150205 0.15711,-0.312694 0.198727,-0.488009 0.04154,-0.175244 0.05506,-0.354213 0.04025,-0.535813 -0.01481,-0.18136 -0.0605,-0.360649 -0.135839,-0.535804 -0.07534,-0.175164 -0.182427,-0.331164 -0.324503,-0.472924 -0.162926,-0.162596 -0.349719,-0.286542 -0.558447,-0.369778 -0.208729,-0.0832 -0.422427,-0.123004 -0.64146,-0.120746 z m -0.140869,0.847732 c 0.02624,-7.2e-4 0.05363,2.23e-4 0.0805,0.0027 0.214846,0.01858 0.412405,0.121084 0.59618,0.304373 0.204703,0.204302 0.300675,0.419511 0.284254,0.649013 -0.01642,0.229493 -0.110925,0.429991 -0.281739,0.601208 l -0.963446,0.965964 -1.252733,-1.250221 1.031367,-1.033884 c 0.153194,-0.153475 0.321926,-0.233911 0.50562,-0.238969 z"
     id="path248"
     style="fill:#d20024"
     inkscape:connector-curvature="0" />
  <path
     d="m 56.909371,22.973732 c -0.07591,-0.09748 -0.15882,-0.191262 -0.248494,-0.280773 L 41.905321,7.9640447 c -1.167526,-1.1638214 -3.050508,-1.1638214 -4.210066,0 L 22.992345,22.692959 c -0.08927,0.08911 -0.171619,0.182649 -0.247045,0.279724 0,0 6.863242,5.449552 17.071047,5.449552 10.207806,0 17.093024,-5.448503 17.093024,-5.448503 z"
     id="DIAMOND_2_"
     style="fill:url(#linearGradient3535)"
     inkscape:connector-curvature="0" />
  <path
     d="m 39.797271,7.0912186 c 0.76166,0 1.524287,0.2909154 2.10805,0.8728261 L 56.660958,22.692959 c 1.16326,1.160035 1.168813,3.045518 0.0092,4.20837 L 41.965932,41.628315 c -0.578611,0.581182 -1.339305,0.871697 -2.100887,0.871697 -0.761499,0 -1.523885,-0.290515 -2.105798,-0.871697 L 23.000957,26.901409 c -1.166399,-1.162852 -1.169941,-3.048335 -0.0085,-4.20837 L 37.695334,7.9641247 C 38.274994,7.382134 39.035607,7.0912186 39.79727,7.0912186 m 0,0.4024797 c -0.686961,0 -1.332224,0.2679821 -1.816896,0.7544173 L 23.277223,22.97727 c -0.484752,0.484266 -0.751277,1.128328 -0.751036,1.813999 3.15e-4,0.689297 0.269824,1.337456 0.758924,1.825021 l 14.758454,14.727065 c 0.487006,0.486355 1.133798,0.754088 1.821482,0.754088 0.687282,0 1.332062,-0.267404 1.815687,-0.753128 L 56.385336,26.616938 c 1.000818,-1.003634 0.997034,-2.636193 -0.0085,-3.639019 L 41.620926,8.2489245 C 41.132471,7.7620004 40.484712,7.4936983 39.797271,7.4936983 l 0,0 z"
     id="path286"
     style="fill:url(#linearGradient3532)"
     inkscape:connector-curvature="0" />
  <g
     transform="matrix(0.08049685,0,0,0.08049685,3.8724916,-2.1531217)"
     id="g288">
    <linearGradient
       x1="351.1777"
       y1="324.90631"
       x2="543.28998"
       y2="324.90631"
       id="linearGradient3341"
       gradientUnits="userSpaceOnUse">
      <stop
         id="stop3343"
         style="stop-color:#d20024;stop-opacity:1"
         offset="0" />
      <stop
         id="stop3345"
         style="stop-color:#c20622;stop-opacity:1"
         offset="0.2406" />
      <stop
         id="stop3347"
         style="stop-color:#a6101e;stop-opacity:1"
         offset="0.71990001" />
      <stop
         id="stop3349"
         style="stop-color:#9c141c;stop-opacity:1"
         offset="1" />
    </linearGradient>
    <path
       d="M 511.514,441.166 H 382.971 c -20.65,0 -31.793,-15.968 -31.793,-30.992 0,-22.642 8.074,-34.352 64.864,-73.589 l 29.936,-20.641 c 15.833,-10.896 18.93,-18.563 18.93,-28.126 0,-12.739 -8.372,-20.345 -22.395,-20.345 -14.595,0 -17.683,7.827 -21.958,18.659 -4.367,11.067 -9.802,24.841 -30.96,24.841 -23.138,0 -35.88,-12.556 -35.88,-35.356 0,-17.067 8.624,-33.88 23.661,-46.126 11.677,-9.51 32.786,-20.846 67.031,-20.846 70.355,0 95.423,39.28 95.423,76.04 0,27.365 -13.46,47.975 -43.644,66.83 l -43.211,27.06 h 58.538 c 20.788,0 31.776,10.821 31.776,31.294 10e-4,20.475 -10.987,31.297 -31.775,31.297 z"
       id="path299"
       style="fill:url(#linearGradient3575)"
       inkscape:connector-curvature="0" />
  </g>
  <path
     d="m 45.047757,28.723461 c 1.521391,0 2.155383,0.782747 2.155383,2.116586 0,1.336079 -0.633992,2.116825 -2.155383,2.116825 H 34.70045 c -1.345665,0 -2.156752,-1.007902 -2.156752,-2.092274 0,-1.562284 0.380026,-2.367581 5.047636,-5.592601 L 40.000766,23.6107 c 1.244159,-0.856168 1.69784,-1.562283 1.69784,-2.595376 0,-1.232976 -0.836283,-2.040194 -2.205212,-2.040194 -2.890884,0 -1.394688,3.501616 -4.259733,3.501616 -1.827761,0 -2.485742,-1.008631 -2.485742,-2.443563 0,-2.417723 2.384236,-4.988557 6.897936,-4.988557 5.401821,0 7.278766,2.922603 7.278766,5.718503 0,2.116825 -1.065777,3.627669 -3.323955,5.03821 l -4.588804,2.87358 v 0.04845 h 6.035895 z"
     id="path301"
     style="fill:#ffffff"
     inkscape:connector-curvature="0" />
  <path
     inkscape:connector-curvature="0"
     style="fill:url(#linearGradient3567)"
     id="path3543"
     d="M 1904.5989,-443.99891 1577.561,-770.44629 c -25.8767,-25.79466 -67.6106,-25.79466 -93.3107,0 l -325.8711,326.44738 c -25.7411,25.71079 -25.6608,67.49998 0.1891,93.27323 l 327.0986,326.402772 c 25.7946,25.7607602 67.5892,25.7607602 93.2357,0 l 325.8997,-326.402772 c 25.7019,-25.77325 25.5788,-67.56244 -0.2034,-93.27323 z" />
  <path
     inkscape:connector-curvature="0"
     style="fill:#d20024"
     id="path3545"
     d="m 1386.4685,-891.53649 c -8.139,-0.17306 -16.193,1.45851 -24.1412,4.79479 -7.9482,3.34164 -15.4687,8.53741 -22.5801,15.66671 -6.6494,6.66543 -11.6235,13.93702 -14.9419,21.79959 -3.3185,7.86791 -4.9616,15.90354 -4.9063,24.08546 0.055,8.18728 1.8287,16.26751 5.3523,24.30849 3.5236,8.04277 8.7769,15.54093 15.7225,22.46863 6.9437,6.92769 14.4111,12.15335 22.4128,15.61095 8.0053,3.45939 16.0615,5.21629 24.197,5.29658 8.1391,0.0839 16.1801,-1.49955 24.0855,-4.7948 7.9,-3.29525 15.2247,-8.34918 21.9668,-15.10917 6.5584,-6.57444 11.5084,-13.76797 14.8304,-21.63233 3.3185,-7.86613 4.9059,-15.89998 4.8506,-24.08547 -0.057,-8.18193 -1.8194,-16.33084 -5.2966,-24.41999 -3.479,-8.08558 -8.6654,-15.59668 -15.6109,-22.52438 -6.851,-6.83492 -14.2029,-12.07931 -22.0226,-15.72246 -7.8198,-3.64315 -15.7809,-5.56597 -23.9183,-5.7426 z m -4.6832,20.96328 c 0.7051,0.004 1.4076,0.0161 2.1186,0.0557 5.6877,0.32114 11.3599,1.84165 17.0048,4.51603 5.6431,2.67616 11.0004,6.49683 16.0012,11.4852 5.2774,5.26312 9.2332,10.7836 11.8755,16.55876 2.644,5.78052 4.0446,11.47673 4.2372,17.1163 0.1892,5.64135 -0.7703,11.10831 -2.8434,16.33575 -2.0749,5.22922 -5.1538,9.88397 -9.3108,14.04986 -4.4317,4.44422 -9.2832,7.73634 -14.5516,9.86835 -5.2685,2.1338 -10.6775,3.11283 -16.2243,2.84343 -5.5503,-0.27119 -11.202,-1.79169 -16.8933,-4.51603 -5.6913,-2.72076 -11.1698,-6.72208 -16.4472,-11.98698 -5.0009,-4.98837 -8.8541,-10.30591 -11.541,-15.94548 -2.6904,-5.636 -4.1935,-11.25014 -4.5718,-16.89328 -0.3764,-5.63779 0.4247,-11.13641 2.4532,-16.50301 2.0267,-5.36482 5.2676,-10.27468 9.7011,-14.7189 4.4335,-4.446 9.2907,-7.64892 14.6074,-9.64534 4.6489,-1.74531 9.4482,-2.64334 14.3844,-2.62041 z m -99.9102,64.45094 c -0.3337,5e-4 -0.6567,0.0205 -1.0035,0.0557 -2.7761,0.27833 -5.2364,1.49553 -7.3595,3.62398 -2.1248,2.13022 -3.2765,4.51067 -3.4567,7.19219 -0.1837,2.6833 0.6775,5.02985 2.6204,6.96917 l 78.5008,78.27779 c 1.8519,1.84834 4.1392,2.72032 6.9135,2.62041 2.7742,-0.0963 5.2345,-1.21497 7.3594,-3.3452 2.1231,-2.12844 3.2748,-4.66143 3.4567,-7.52671 0.1838,-2.86528 -0.6552,-5.17659 -2.5089,-7.02493 l -78.445,-78.27779 c -1.7001,-1.6969 -3.7406,-2.56819 -6.0772,-2.56466 z m -29.159,50.23383 c -7.9054,0.0571 -15.7635,1.90319 -23.5279,5.51958 -7.7627,3.61639 -15.1899,8.98701 -22.3014,16.11274 l -18.4544,18.45438 c -2.1248,2.13201 -3.2096,4.59809 -3.3452,7.4152 -0.1374,2.82246 0.7128,5.17838 2.5647,7.02493 l 77.0512,76.88396 c 1.8537,1.85012 4.1931,2.69802 6.9692,2.5089 2.7743,-0.18555 5.2345,-1.38045 7.3594,-3.51246 l 18.2871,-18.28712 c 7.1097,-7.1293 12.4696,-14.64888 16.1128,-22.46863 3.6431,-7.81796 5.4932,-15.6114 5.5753,-23.47218 0.08,-7.86079 -1.5963,-15.6966 -5.0735,-23.41644 -3.4773,-7.71627 -8.7212,-15.03915 -15.6668,-21.96684 -7.0365,-7.01869 -14.4053,-12.26129 -22.1341,-15.72246 -7.7252,-3.45582 -15.5092,-5.12709 -23.4164,-5.07356 z m -3.7912,19.84821 c 0.6652,-0.0214 1.3395,-0.0191 2.0071,0 10.6814,0.31044 21.3567,5.7707 32.0025,16.3915 10.5548,10.52982 15.9053,21.17426 16.0569,31.94671 0.1517,10.77602 -4.7252,21.09174 -14.6074,30.9989 l -10.6489,10.70465 -64.7297,-64.56245 10.8162,-10.81616 c 9.4368,-9.46024 19.1252,-14.34199 29.1033,-14.66315 z m -107.6599,71.69889 c -1.0753,-0.0335 -2.1574,0.0699 -3.2894,0.27877 -2.264,0.42105 -4.2284,1.4371 -5.7984,3.01068 -1.57,1.57537 -2.6529,3.38178 -3.3452,5.46383 -0.6904,2.08028 -0.6677,4.17705 0.1672,6.30014 l 44.993,112.17587 c 0.4639,1.38803 1.2524,2.7056 2.4532,3.90273 1.7609,1.75735 3.9156,2.45628 6.4116,2.17439 2.496,-0.28011 4.6953,-1.40053 6.6347,-3.34521 1.57,-1.57358 2.6882,-3.30907 3.2894,-5.29657 0.5977,-1.98928 0.5192,-3.85145 -0.223,-5.51959 l -10.0356,-24.36424 38.3583,-38.46985 23.3607,10.20287 c 1.7609,0.83139 3.7462,0.93175 5.9656,0.27877 2.2159,-0.64942 4.0218,-1.6784 5.4081,-3.06644 2.5852,-2.59231 3.7556,-5.16098 3.5682,-7.74973 -0.1891,-2.58695 -1.0263,-4.65384 -2.5089,-6.13287 -0.8349,-0.8314 -2.0691,-1.60124 -3.7355,-2.34164 l -108.5518,-47.00013 c -1.0178,-0.27475 -2.0468,-0.46833 -3.1222,-0.50178 z m 9.5339,22.69164 c 8.7938,4.33717 17.5717,8.64401 26.3156,12.93479 8.7457,4.289 17.6372,8.5267 26.7059,12.76753 l -28.8245,28.88027 -24.197,-54.58259 z m -65.9006,45.21601 c -4.8545,0.0535 -9.6801,1.07181 -14.4401,3.06644 -4.7618,1.99464 -9.0749,4.99595 -13.0463,8.9763 l -30.1068,30.10684 c -2.1267,2.13202 -3.1985,4.58873 -3.2895,7.35946 -0.091,2.77607 0.7685,5.12262 2.6204,6.96917 l 77.6645,77.44149 c 1.8519,1.84834 4.1392,2.72032 6.9134,2.62041 2.7743,-0.0946 5.2346,-1.21319 7.3595,-3.3452 2.1231,-2.12844 3.2747,-4.65965 3.4567,-7.52671 0.1838,-2.86528 -0.6552,-5.1766 -2.5089,-7.02493 l -31.5007,-31.44493 14.9419,-14.99767 55.7535,13.49233 c 1.6663,0.37109 3.4464,0.35415 5.2965,-0.11151 1.8466,-0.46565 3.6525,-1.58429 5.4081,-3.3452 2.1267,-1.76092 3.2953,-4.02584 3.5682,-6.80192 0.2748,-2.77429 -0.4879,-5.11905 -2.3416,-6.96917 -0.4621,-0.46209 -1.3064,-1.02676 -2.5089,-1.67261 -1.2007,-0.64406 -2.2333,-0.96297 -3.0665,-1.05931 l -48.6727,-9.8126 c 2.0303,-3.32915 3.4822,-6.93037 4.4045,-10.81616 0.9206,-3.88401 1.2204,-7.85053 0.8921,-11.87548 -0.3283,-4.0196 -1.3408,-7.99326 -3.0107,-11.87548 -1.6699,-3.88222 -4.0432,-7.33982 -7.1922,-10.48164 -3.611,-3.6039 -7.751,-6.35098 -12.3772,-8.19575 -4.6262,-1.84299 -9.3626,-2.72612 -14.2172,-2.67617 z m -3.1222,18.7889 c 0.5817,-0.016 1.1887,0.005 1.7842,0.0557 4.7618,0.41213 9.1404,2.68375 13.2135,6.74616 4.537,4.52807 6.6641,9.29789 6.3002,14.38438 -0.364,5.0865 -2.4586,9.53027 -6.2444,13.32507 l -21.3536,21.40931 -27.7652,-27.70945 22.8589,-22.91465 c 3.3954,-3.40162 7.1351,-5.18451 11.2064,-5.29657 z" />
  <path
     inkscape:connector-curvature="0"
     style="fill:url(#linearGradient3569)"
     id="path3547"
     d="m 1910.1065,-437.77594 c -1.6825,-2.16056 -3.5201,-4.23904 -5.5076,-6.22297 L 1577.561,-770.44629 c -25.8767,-25.79466 -67.6106,-25.79466 -93.3107,0 l -325.8711,326.44738 c -1.9786,1.97501 -3.8037,4.04814 -5.4754,6.19978 0,0 152.1149,120.7824 378.3578,120.7824 226.2429,0 378.8449,-120.75921 378.8449,-120.75921 z" />
  <path
     inkscape:connector-curvature="0"
     style="fill:url(#linearGradient3571)"
     id="path3549"
     d="m 1530.8388,-789.79139 c 16.8812,0 33.7838,6.44777 46.7222,19.3451 l 327.0397,326.44738 c 25.7822,25.71079 25.9053,67.49998 0.2034,93.27323 l -325.8997,326.404562 c -12.8242,12.88127 -29.684,19.3201202 -46.5634,19.3201202 -16.8777,0 -33.775,-6.4388502 -46.6723,-19.3201202 L 1158.5701,-350.7239 c -25.8518,-25.77324 -25.9303,-67.56243 -0.1891,-93.27323 l 325.8711,-326.44738 c 12.8474,-12.89911 29.7054,-19.34688 46.5867,-19.34688 m 0,8.92055 c -15.2256,0 -29.5271,5.9393 -40.2692,16.72067 l -325.8764,326.45273 c -10.7439,10.7332 -16.6511,25.00786 -16.6458,40.2049 0.01,15.27733 5.9803,29.64298 16.8206,40.44932 l 327.1022,326.406352 c 10.7938,10.77959 25.1291,16.71354 40.3708,16.71354 15.2327,0 29.5234,-5.92681 40.2423,-16.69213 l 325.9086,-326.413482 c 22.1818,-22.24428 22.098,-58.42779 -0.1891,-80.65423 l -327.0451,-326.44916 c -10.8259,-10.79208 -25.1827,-16.73851 -40.4189,-16.73851 l 0,0 z" />
  <g
     id="g3551"
     transform="matrix(1.7841092,0,0,1.7841092,734.61222,-994.68027)">
    <linearGradient
       gradientUnits="userSpaceOnUse"
       id="linearGradient3553"
       y2="324.90631"
       x2="543.28998"
       y1="324.90631"
       x1="351.1777">
      <stop
         offset="0"
         style="stop-color:#d20024;stop-opacity:1"
         id="stop3555" />
      <stop
         offset="0.2406"
         style="stop-color:#c20622;stop-opacity:1"
         id="stop3557" />
      <stop
         offset="0.71990001"
         style="stop-color:#a6101e;stop-opacity:1"
         id="stop3559" />
      <stop
         offset="1"
         style="stop-color:#9c141c;stop-opacity:1"
         id="stop3561" />
    </linearGradient>
    <path
       inkscape:connector-curvature="0"
       style="fill:url(#linearGradient3573)"
       id="path3563"
       d="M 511.514,441.166 H 382.971 c -20.65,0 -31.793,-15.968 -31.793,-30.992 0,-22.642 8.074,-34.352 64.864,-73.589 l 29.936,-20.641 c 15.833,-10.896 18.93,-18.563 18.93,-28.126 0,-12.739 -8.372,-20.345 -22.395,-20.345 -14.595,0 -17.683,7.827 -21.958,18.659 -4.367,11.067 -9.802,24.841 -30.96,24.841 -23.138,0 -35.88,-12.556 -35.88,-35.356 0,-17.067 8.624,-33.88 23.661,-46.126 11.677,-9.51 32.786,-20.846 67.031,-20.846 70.355,0 95.423,39.28 95.423,76.04 0,27.365 -13.46,47.975 -43.644,66.83 l -43.211,27.06 h 58.538 c 20.788,0 31.776,10.821 31.776,31.294 10e-4,20.475 -10.987,31.297 -31.775,31.297 z" />
  </g>
  <path
     inkscape:connector-curvature="0"
     style="fill:#ffffff"
     id="path3565"
     d="m 1647.209,-310.34059 c 33.7197,0 47.7713,17.34868 47.7713,46.91137 0,29.61264 -14.0516,46.91672 -47.7713,46.91672 h -229.3347 c -29.825,0 -47.8016,-22.33883 -47.8016,-46.37257 0,-34.62599 8.4227,-52.47422 111.8743,-123.95277 l 53.402,-36.82044 c 27.5752,-18.97579 37.6304,-34.626 37.6304,-57.52325 0,-27.3272 -18.5351,-45.21825 -48.8757,-45.21825 -64.0727,0 -30.9115,77.60875 -94.4115,77.60875 -40.51,0 -55.0933,-22.35489 -55.0933,-54.15842 0,-53.58572 52.8436,-110.56481 152.8839,-110.56481 119.7245,0 161.3245,64.77565 161.3245,126.74311 0,46.91672 -23.6216,80.40267 -73.6712,111.66561 l -101.7049,63.68913 v 1.07404 h 133.7778 z" />
</svg>
