<?xml version="1.0" encoding="UTF-8" standalone="no"?>
<!-- Created with Inkscape (http://www.inkscape.org/) -->

<svg
   xmlns:dc="http://purl.org/dc/elements/1.1/"
   xmlns:cc="http://creativecommons.org/ns#"
   xmlns:rdf="http://www.w3.org/1999/02/22-rdf-syntax-ns#"
   xmlns:svg="http://www.w3.org/2000/svg"
   xmlns="http://www.w3.org/2000/svg"
   xmlns:sodipodi="http://sodipodi.sourceforge.net/DTD/sodipodi-0.dtd"
   xmlns:inkscape="http://www.inkscape.org/namespaces/inkscape"
   version="1.1"
   width="80"
   height="45"
   id="svg11328"
   inkscape:version="0.48.2 r9819"
   sodipodi:docname="Radio_1_Logo.svg">
  <sodipodi:namedview
     pagecolor="#ffffff"
     bordercolor="#666666"
     borderopacity="1"
     objecttolerance="10"
     gridtolerance="10"
     guidetolerance="10"
     inkscape:pageopacity="0"
     inkscape:pageshadow="2"
     inkscape:window-width="1387"
     inkscape:window-height="740"
     id="namedview10"
     showgrid="false"
     inkscape:zoom="7.6630373"
     inkscape:cx="47.377914"
     inkscape:cy="24.983557"
     inkscape:window-x="1871"
     inkscape:window-y="113"
     inkscape:window-maximized="0"
     inkscape:current-layer="svg11328" />
  <defs
     id="defs11330" />
  <metadata
     id="metadata11333">
    <rdf:RDF>
      <cc:Work
         rdf:about="">
        <dc:format>image/svg+xml</dc:format>
        <dc:type
           rdf:resource="http://purl.org/dc/dcmitype/StillImage" />
        <dc:title />
      </cc:Work>
    </rdf:RDF>
  </metadata>
  <g
     transform="matrix(0.04517146,0,0,0.04517146,17.349183,6.2250797)"
     id="layer1">
    <g
       transform="matrix(17.532238,0,0,17.532238,-1687.5159,-3483.1553)"
       id="g11397">
      <path
         d="m 116.25,193.96875 c -0.46375,-0.01 -0.9225,0.06 -1.375,0.25 -0.4525,0.19 -0.87625,0.50125 -1.28125,0.90625 -0.37875,0.38 -0.655,0.8025 -0.84375,1.25 -0.18995,0.44875 -0.28525,0.90875 -0.28125,1.375 0.002,0.46625 0.0812,0.91625 0.28125,1.375 0.20125,0.4575 0.51,0.8875 0.90625,1.28125 0.395,0.395 0.825,0.6775 1.28125,0.875 0.455,0.19625 0.91125,0.3075 1.375,0.3125 0.46375,0.004 0.925,-0.0937 1.375,-0.28125 0.45,-0.1875 0.86625,-0.45875 1.25,-0.84375 0.37375,-0.375 0.655,-0.8025 0.84375,-1.25 0.18995,-0.4475 0.28525,-0.90875 0.28125,-1.375 -0.002,-0.465 -0.115,-0.915 -0.3125,-1.375 -0.19875,-0.46125 -0.48,-0.8875 -0.875,-1.28125 -0.39,-0.38875 -0.835,-0.69875 -1.28125,-0.90625 -0.445,-0.2075 -0.88,-0.3025 -1.34375,-0.3125 z m -0.15625,1.1875 c 0.32375,0.0188 0.6475,0.0975 0.96875,0.25 0.32125,0.1525 0.62125,0.3725 0.90625,0.65625 0.3,0.3 0.5375,0.60875 0.6875,0.9375 0.1512,0.32875 0.2387,0.67875 0.25,1 0.01,0.32125 -0.0375,0.60875 -0.15625,0.90625 -0.1175,0.29875 -0.29375,0.57625 -0.53125,0.8125 -0.2525,0.25375 -0.545,0.44125 -0.84375,0.5625 -0.30125,0.12125 -0.62125,0.17125 -0.9375,0.15625 -0.315,-0.015 -0.6125,-0.095 -0.9375,-0.25 -0.32375,-0.155 -0.6375,-0.3875 -0.9375,-0.6875 -0.285,-0.28375 -0.50375,-0.585 -0.65625,-0.90625 -0.15375,-0.32125 -0.25995,-0.6475 -0.28125,-0.96875 -0.0212,-0.32 0.0413,-0.63125 0.15625,-0.9375 0.115,-0.305 0.31125,-0.59 0.5625,-0.84375 0.2525,-0.2525 0.50875,-0.4175 0.8125,-0.53125 0.3025,-0.11375 0.61375,-0.17375 0.9375,-0.15625 z m -5.875,3.6875 c -0.1575,0.0163 -0.28625,0.0662 -0.40625,0.1875 -0.1212,0.12125 -0.1775,0.25375 -0.1875,0.40625 -0.01,0.15375 0.0463,0.29625 0.15625,0.40625 l 4.46875,4.46875 c 0.105,0.105 0.2175,0.13 0.375,0.125 0.1575,-0.006 0.31625,-0.0662 0.4375,-0.1875 0.11995,-0.1225 0.1775,-0.2425 0.1875,-0.40625 0.0113,-0.1625 -0.0512,-0.30125 -0.15625,-0.40625 l -4.46875,-4.46875 c -0.11125,-0.11005 -0.2475,-0.1412 -0.40625,-0.125 z m 14.3125,0.9375 c -0.96109,0 -1.92437,0.39063 -2.65625,1.125 l -18.53125,18.5625 c -1.465,1.46375 -1.4712,3.845 0,5.3125 l 18.625,18.59375 c 1.46875,1.4675 3.8525,1.4675 5.3125,0 l 18.5625,-18.59375 c 1.46376,-1.4675 1.43621,-3.84875 -0.0312,-5.3125 l -18.625,-18.5625 c -0.73625,-0.73437 -1.69516,-1.125 -2.65625,-1.125 z M 108.625,201.6875 c -0.45,0.002 -0.90125,0.10625 -1.34375,0.3125 -0.44125,0.205 -0.845,0.5 -1.25,0.90625 l -1.0625,1.0625 c -0.12,0.12125 -0.1805,0.2775 -0.1875,0.4375 -0.007,0.16125 0.0512,0.27 0.15625,0.375 l 4.375,4.375 c 0.10625,0.10505 0.2475,0.16745 0.40625,0.15625 0.1575,-0.01 0.285,-0.0662 0.40625,-0.1875 l 1.03125,-1.0625 c 0.405,-0.40625 0.73,-0.83625 0.9375,-1.28125 0.2075,-0.44625 0.3075,-0.89625 0.3125,-1.34375 0.005,-0.4475 -0.0837,-0.87375 -0.28125,-1.3125 -0.19875,-0.44 -0.51125,-0.855 -0.90625,-1.25 -0.40125,-0.4 -0.81,-0.70875 -1.25,-0.90625 -0.44,-0.1963 -0.89375,-0.28525 -1.34375,-0.28125 z m -0.0937,1.125 c 0.60875,0.0188 1.20625,0.33375 1.8125,0.9375 0.60125,0.6 0.89725,1.19875 0.90625,1.8125 0.009,0.61375 -0.25,1.2175 -0.8125,1.78125 l -0.625,0.59375 -3.65625,-3.65625 0.59375,-0.625 c 0.57375,-0.575 1.1725,-0.86125 1.78125,-0.84375 z m -6.4375,4.09375 c -0.12875,0.0238 -0.2237,0.0975 -0.3125,0.1875 -0.09,0.09 -0.17875,0.19375 -0.21875,0.3125 -0.0387,0.11875 -0.0162,0.22375 0.0312,0.34375 l 2.5625,6.40625 c 0.0263,0.0788 0.0562,0.15125 0.125,0.21875 0.1,0.1 0.2325,0.1413 0.375,0.125 0.1425,-0.015 0.265,-0.0762 0.375,-0.1875 0.09,-0.0888 0.1538,-0.2 0.1875,-0.3125 0.0337,-0.11375 0.0425,-0.2175 0,-0.3125 l -0.59375,-1.40625 2.1875,-2.1875 1.34375,0.59375 c 0.1,0.0475 0.2175,0.0375 0.34375,0 0.12625,-0.0375 0.20245,-0.0774 0.28125,-0.15625 0.1475,-0.1475 0.23005,-0.29125 0.21875,-0.4375 -0.0113,-0.1475 -0.0713,-0.25995 -0.15625,-0.34375 -0.0475,-0.0475 -0.0925,-0.11375 -0.1875,-0.15625 l -6.1875,-2.65625 c -0.11625,-0.0312 -0.24625,-0.055 -0.375,-0.0312 z m 0.71875,1.28125 c 0.50125,0.24625 1.00125,0.50625 1.5,0.75 0.4975,0.24375 1.015,0.4775 1.53125,0.71875 l -1.625,1.65625 -1.40625,-3.125 z m -3.75,2.5625 c -0.27625,0.002 -0.54125,0.0737 -0.8125,0.1875 -0.27125,0.11375 -0.52375,0.27375 -0.75,0.5 l -1.6875,1.71875 c -0.1213,0.12125 -0.21375,0.28 -0.21875,0.4375 -0.005,0.1575 0.05,0.27 0.15625,0.375 l 4.4375,4.40625 c 0.10625,0.10505 0.2175,0.16225 0.375,0.15625 0.15875,-0.005 0.31625,-0.0662 0.4375,-0.1875 0.1212,-0.12125 0.1762,-0.24375 0.1875,-0.40625 0.01,-0.16375 -0.05,-0.30125 -0.15625,-0.40625 l -1.78125,-1.8125 0.84375,-0.84375 3.1875,0.78125 c 0.095,0.021 0.2075,-0.004 0.3125,-0.0312 0.105,-0.0263 0.18125,-0.0863 0.28125,-0.1875 0.1212,-0.1 0.20375,-0.2175 0.21875,-0.375 0.015,-0.15875 -0.0187,-0.30125 -0.125,-0.40625 -0.0263,-0.0263 -0.0875,-0.0575 -0.15625,-0.0937 -0.0675,-0.0362 -0.10875,-0.0575 -0.15625,-0.0625 l -2.78125,-0.5625 c 0.11625,-0.19 0.1975,-0.3725 0.25,-0.59375 0.052,-0.22125 0.05,-0.4575 0.0312,-0.6875 -0.0187,-0.22875 -0.0613,-0.46625 -0.15625,-0.6875 -0.095,-0.22125 -0.22625,-0.415 -0.40625,-0.59375 -0.205,-0.205 -0.45625,-0.36375 -0.71875,-0.46875 -0.26375,-0.105 -0.53625,-0.15825 -0.8125,-0.15625 z M 99,211.84375 c 0.27,0.0238 0.51875,0.14375 0.75,0.375 0.25875,0.2575 0.36505,0.5225 0.34375,0.8125 -0.02,0.28875 -0.12875,0.565 -0.34375,0.78125 l -1.21875,1.21875 -1.5625,-1.59375 1.28125,-1.3125 c 0.22125,-0.2213 0.47875,-0.30375 0.75,-0.28125 z"
         id="path1300"
         style="fill:#163276;fill-opacity:1;fill-rule:nonzero;stroke:none"
         inkscape:connector-curvature="0" />
      <path
         d="m 133.40919,230.48081 0,-23.43375 -4.23875,0.605 c -1.87,3.68875 -5.95,5.51875 -10.7725,5.525 0,0.94875 -0.005,4.825 -0.005,4.825 l 7.2925,-0.99375 -0.001,14.5175 -7.7075,1.03625 0.002,6.835 15.35625,-2.0825 7.85125,-7.865 -7.7775,1.03125 z"
         id="path1302"
         style="fill:#ffffff;fill-opacity:1;fill-rule:nonzero;stroke:none"
         inkscape:connector-curvature="0" />
      <path
         d="m 129,202.6875 -4.25,0.5625 c 0,0 -2.34125,5.37625 -10.75,5.5625 1.27375,1.26625 2.91125,2.88 4.40625,4.375 8.53375,0 10.78125,-5.53125 10.78125,-5.53125 l 4.21875,-0.5625 L 129,202.6875 z m 7.875,22.46875 -3.46875,0.46875 0,4.875 7.78125,-1.0625 -4.3125,-4.28125 z m -15.53125,2.09375 -7.65625,1.03125 4.28125,4.28125 7.71875,-1.03125 -4.34375,-4.28125 z"
         id="path1304"
         style="fill:#2aabde;fill-opacity:1;fill-rule:nonzero;stroke:none"
         inkscape:connector-curvature="0" />
    </g>
  </g>
</svg>
