<?xml version="1.0" encoding="UTF-8" standalone="no"?>
<!-- Created with Inkscape (http://www.inkscape.org/) -->

<svg
   xmlns:dc="http://purl.org/dc/elements/1.1/"
   xmlns:cc="http://creativecommons.org/ns#"
   xmlns:rdf="http://www.w3.org/1999/02/22-rdf-syntax-ns#"
   xmlns:svg="http://www.w3.org/2000/svg"
   xmlns="http://www.w3.org/2000/svg"
   xmlns:sodipodi="http://sodipodi.sourceforge.net/DTD/sodipodi-0.dtd"
   xmlns:inkscape="http://www.inkscape.org/namespaces/inkscape"
   version="1.1"
   width="80"
   height="45"
   id="svg11511"
   inkscape:version="0.48.2 r9819"
   sodipodi:docname="Radio_6_Logo.svg">
  <sodipodi:namedview
     pagecolor="#ffffff"
     bordercolor="#666666"
     borderopacity="1"
     objecttolerance="10"
     gridtolerance="10"
     guidetolerance="10"
     inkscape:pageopacity="0"
     inkscape:pageshadow="2"
     inkscape:window-width="1855"
     inkscape:window-height="1058"
     id="namedview13"
     showgrid="false"
     inkscape:zoom="12.22402"
     inkscape:cx="63.048789"
     inkscape:cy="15.808965"
     inkscape:window-x="1737"
     inkscape:window-y="-8"
     inkscape:window-maximized="1"
     inkscape:current-layer="svg11511" />
  <defs
     id="defs11513" />
  <metadata
     id="metadata11516">
    <rdf:RDF>
      <cc:Work
         rdf:about="">
        <dc:format>image/svg+xml</dc:format>
        <dc:type
           rdf:resource="http://purl.org/dc/dcmitype/StillImage" />
        <dc:title />
      </cc:Work>
    </rdf:RDF>
  </metadata>
  <g
     transform="matrix(0.06475882,0,0,0.06475882,11.936726,-7.6559611)"
     id="layer1">
    <g
       transform="translate(49.997975,-50.001777)"
       id="g11605">
      <path
         d="M 642.06282,518.62181 414.19416,291.16067 c -18.0369,-17.97652 -47.12234,-17.97652 -65.0234,0 L 122.11715,518.62181 c -17.93124,17.91615 -17.88596,47.03177 0.13524,64.9932 l 227.91395,227.43095 c 17.96143,17.94634 47.09215,17.94634 64.96302,0 l 114.39469,-114.5909 17.82558,-17.70484 -2.43007,-6.59592 17.68974,-8.70903 79.58876,-79.83026 c 17.91615,-17.96143 17.82559,-47.07705 -0.13645,-64.9932"
         id="path1344"
         style="fill:#699519;fill-opacity:1;fill-rule:nonzero;stroke:none"
         inkscape:connector-curvature="0" />
      <path
         d="m 522.55598,589.40638 c 0,-48.23927 -40.90376,-82.99992 -96.90116,-82.99992 -45.58279,0 -59.83119,20.87451 -67.1516,31.65136 l 0,-67.00066 c 0,-33.206 0.75468,-58.66897 42.82065,-58.66897 15.45589,0 27.42514,3.48663 27.42514,7.71285 0,1.59992 -1.93198,3.12438 -6.1733,5.43371 -14.29367,7.74303 -19.71229,14.00689 -19.71229,27.54589 0,21.22165 20.45188,35.09271 47.87702,35.09271 28.17983,0 47.07706,-18.79158 47.07706,-40.79811 0,-32.82866 -35.87758,-51.36365 -98.81805,-51.36365 -98.04828,0 -161.72834,55.9974 -161.72834,142.04623 0,72.20797 43.45459,124.35649 111.69293,139.63126 l 32.01361,32.10417 28.10435,-28.10436 c 67.28744,-5.31296 113.47398,-41.9905 113.47398,-92.28251"
         id="path1346"
         style="fill:#ffffff;fill-opacity:1;fill-rule:nonzero;stroke:none"
         inkscape:connector-curvature="0" />
      <path
         d="m 278.90625,206.84375 c -4.94951,0.16179 -9.84055,1.24738 -14.6875,3.28125 -5.53936,2.33951 -10.7842,6.00294 -15.75,10.96875 -4.63375,4.64884 -8.09693,9.70851 -10.40625,15.1875 -2.30993,5.47899 -3.45455,11.07586 -3.40625,16.78125 0.0453,5.7054 1.28973,11.33776 3.75,16.9375 2.46026,5.61483 6.09245,10.82629 10.9375,15.65625 4.82997,4.82997 10.04035,8.44386 15.625,10.84375 5.56955,2.41498 11.19979,3.6392 16.875,3.6875 5.66011,0.0604 11.25591,-1.04951 16.75,-3.34375 5.50918,-2.29423 10.60329,-5.79078 15.3125,-10.5 4.55828,-4.58847 7.98808,-9.61476 10.3125,-15.09375 2.30933,-5.47899 3.45455,-11.07586 3.40625,-16.78125 -0.0302,-5.7054 -1.27252,-11.37008 -3.6875,-17 -2.43007,-5.62993 -6.02994,-10.85753 -10.875,-15.6875 -4.76959,-4.75449 -9.89495,-8.40177 -15.34375,-10.9375 -5.44881,-2.53574 -11.0123,-3.86355 -16.6875,-4 -0.7094,-0.0151 -1.41793,-0.0231 -2.125,0 z m -1.125,14.59375 c 0.49196,0.003 1.0038,0.0341 1.5,0.0625 3.96963,0.21132 7.90431,1.25339 11.84375,3.125 3.92434,1.85651 7.63837,4.52846 11.125,8 3.66775,3.66775 6.40858,7.50125 8.25,11.53125 1.84203,4.03 2.86355,7.99806 3,11.9375 0.12075,3.92434 -0.55101,7.70619 -2,11.34375 -1.44899,3.65266 -3.60202,6.93068 -6.5,9.84375 -3.09419,3.0942 -6.45725,5.39582 -10.125,6.875 -3.66776,1.49427 -7.44852,2.13432 -11.3125,1.9375 -3.86397,-0.18113 -7.78037,-1.2232 -11.75,-3.125 -3.95453,-1.90179 -7.7859,-4.67599 -11.46875,-8.34375 -3.48663,-3.47153 -6.15964,-7.18556 -8.03125,-11.125 -1.8867,-3.92434 -2.94707,-7.84181 -3.21875,-11.78125 -0.2566,-3.92434 0.3312,-7.75678 1.75,-11.5 1.40371,-3.74322 3.65581,-7.1558 6.75,-10.25 3.0942,-3.0942 6.48956,-5.33014 10.1875,-6.71875 3.2357,-1.21504 6.55629,-1.8328 10,-1.8125 z m -69.59375,44.90625 c -0.23251,-9.7e-4 -0.47725,0.009 -0.71875,0.0312 -1.93198,0.19622 -3.64582,1.02082 -5.125,2.5 -1.49488,1.49427 -2.2855,3.19088 -2.40625,5.0625 -0.13585,1.85651 0.48532,3.45407 1.84375,4.8125 l 54.65625,54.53125 c 1.29805,1.29865 2.91176,1.91615 4.84375,1.84375 1.93198,-0.0604 3.64582,-0.84948 5.125,-2.34375 1.47918,-1.47918 2.26981,-3.2113 2.40625,-5.21875 0.12075,-1.99236 -0.45195,-3.62329 -1.75,-4.90625 L 212.375,268.0937 c -1.17542,-1.17541 -2.55995,-1.74319 -4.1875,-1.75 z m -20.34375,34.96875 c -5.50918,0.0453 -10.97148,1.35437 -16.375,3.875 -5.40353,2.50555 -10.61179,6.25294 -15.5625,11.21875 l -12.84375,12.875 c -1.47917,1.49427 -2.25925,3.19408 -2.34375,5.15625 -0.10566,1.96217 0.4832,3.59205 1.78125,4.875 l 53.71875,53.59375 c 1.29805,1.28296 2.88051,1.8552 4.8125,1.71875 1.93199,-0.13584 3.66198,-0.91198 5.15625,-2.40625 l 12.71875,-12.78125 c 4.95071,-4.96581 8.69917,-10.1762 11.25,-15.625 2.53573,-5.4488 3.84585,-10.89601 3.90625,-16.375 0.0453,-5.47899 -1.14752,-10.90792 -3.5625,-16.28125 -2.43007,-5.38843 -6.07629,-10.48253 -10.90625,-15.3125 -4.90544,-4.89034 -10.03292,-8.55376 -15.40625,-10.96875 -5.38843,-2.41498 -10.83458,-3.5866 -16.34375,-3.5625 z m -2.625,13.84375 c 0.46342,-0.0151 0.90993,-0.0132 1.375,0 7.44116,0.2264 14.85518,4.04162 22.28125,11.4375 7.3506,7.33551 11.07882,14.74846 11.1875,22.25 0.10565,7.51663 -3.25846,14.72721 -10.15625,21.625 l -7.4375,7.4375 -45.09375,-44.96875 7.53125,-7.5625 c 6.57988,-6.57988 13.36117,-9.9924 20.3125,-10.21875 z M 110.1875,365.125 c -0.74902,-0.0228 -1.52008,0.0438 -2.3125,0.1875 -1.56974,0.28677 -2.89877,0.99131 -4,2.09375 -1.08674,1.10183 -1.86076,2.36351 -2.34375,3.8125 -0.483,1.44899 -0.46425,2.92707 0.125,4.40625 L 133,453.78125 c 0.31697,0.98108 0.888,1.85795 1.71875,2.6875 1.22259,1.23707 2.73299,1.75933 4.46875,1.5625 1.73577,-0.19621 3.26657,-1.00041 4.625,-2.34375 1.08674,-1.10183 1.82737,-2.33014 2.25,-3.71875 0.42262,-1.38862 0.35693,-2.65089 -0.15625,-3.8125 l -6.96875,-17 26.75,-26.8125 16.25,7.125 c 1.22259,0.57356 2.6167,0.6548 4.15625,0.1875 1.53955,-0.45281 2.78401,-1.159 3.75,-2.125 1.79675,-1.79614 2.652,-3.59502 2.53125,-5.40625 -0.13585,-1.79615 -0.70793,-3.22363 -1.75,-4.25 -0.57355,-0.58865 -1.4634,-1.14307 -2.625,-1.65625 l -75.625,-32.75 c -0.70941,-0.18897 -1.43848,-0.32096 -2.1875,-0.34375 z m 6.65625,15.78125 c 6.12802,3.03383 12.24592,6.04271 18.34375,9.03125 6.08274,2.98854 12.28461,5.96299 18.59375,8.90625 l -20.0625,20.125 -16.875,-38.0625 z m -45.9375,31.53125 c -3.380975,0.0453 -6.725743,0.76763 -10.03125,2.15625 -3.320601,1.38861 -6.362865,3.47277 -9.125,6.25 L 30.8125,441.8125 c -1.47978,1.47917 -2.25212,3.20871 -2.3125,5.125 -0.06037,1.94708 0.545697,3.5457 1.84375,4.84375 L 84.4375,505.75 c 1.28296,1.28296 2.880514,1.885 4.8125,1.8125 1.931986,-0.0604 3.645824,-0.83332 5.125,-2.3125 1.479177,-1.47917 2.2855,-3.22639 2.40625,-5.21875 0.135842,-1.99236 -0.435791,-3.63944 -1.71875,-4.9375 l -22,-21.90625 10.4375,-10.46875 38.875,9.4375 c 1.16221,0.25357 2.37329,0.23831 3.65625,-0.0937 1.29805,-0.33206 2.55866,-1.12116 3.78125,-2.34375 1.47918,-1.22258 2.30318,-2.78676 2.5,-4.71875 0.19621,-1.93198 -0.34204,-3.56079 -1.625,-4.84375 -0.33206,-0.31636 -0.90476,-0.70344 -1.75,-1.15625 -0.83015,-0.45281 -1.567,-0.70885 -2.15625,-0.78125 L 92.875,451.40625 c 1.418802,-2.32442 2.428567,-4.8144 3.0625,-7.53125 0.654465,-2.70176 0.852008,-5.47384 0.625,-8.28125 -0.226405,-2.80742 -0.930936,-5.53314 -2.09375,-8.25 -1.16221,-2.70176 -2.827579,-5.15517 -5.03125,-7.34375 -2.505545,-2.50554 -5.363711,-4.40454 -8.59375,-5.6875 -3.214945,-1.28356 -6.541432,-1.9112 -9.9375,-1.875 z M 68.75,425.53125 c 0.405612,-0.0109 0.803675,0.0267 1.21875,0.0625 3.305507,0.28678 6.412396,1.81864 9.25,4.65625 3.170268,3.15457 4.600946,6.5155 4.34375,10.0625 -0.241498,3.53191 -1.671114,6.62477 -4.3125,9.28125 L 64.375,464.5 45.03125,445.1875 60.9375,429.21875 c 2.364041,-2.37673 4.973216,-3.61096 7.8125,-3.6875 z M 536.1875,624.125 c -19.30477,0 -34.96875,11.82473 -34.96875,26.375 0,4.84506 1.74743,9.38709 4.78125,13.28125 0,0 0.0773,0.11568 0.25,0.3125 0.10868,0.12075 0.20624,0.25425 0.3125,0.375 0.98049,1.1773 4.37349,5.37965 7.4375,9.0625 -20.67828,3.96963 -29.875,14.92294 -29.875,31.375 0,19.54627 18.8976,36.71875 40.84375,36.71875 14.32386,0 27.24781,-4.67958 36.0625,-12 1.81123,2.15839 5.54379,6.32929 6.34375,7.25 0.33206,0.37674 0.73706,0.90625 1.71875,0.90625 0.0362,0 0.46982,0.0312 0.5,0.0312 l 35.15625,0 c 0.0121,0 0.0384,0 0.0625,0 0.49749,-0.0121 0.90625,-0.43881 0.90625,-0.9375 0,-0.52768 -0.42552,-0.9375 -0.9375,-0.9375 l -0.0312,0 -2.09375,0 c -1.53955,0.0725 -3.42155,-0.64986 -5.1875,-2.6875 l -19.0625,-22.125 c 12.15038,-17.53881 13.26615,-34.59455 13.28125,-41.71875 l 0.0312,0.0312 c 0,-1.34334 1.08605,-2.73172 2.625,-2.65625 l 9.375,-0.0312 0.0312,0 c 0.51319,0 0.9375,-0.37737 0.9375,-0.90625 0,-0.4987 -0.40756,-0.9218 -0.90625,-0.9375 l -0.0312,0 c -0.99618,0 -9.19001,-0.0121 -15.03125,0 -5.82614,-0.0121 -13.97257,0 -14.96875,0 l -0.0312,0 c -0.51318,0.0121 -0.90625,0.4388 -0.90625,0.9375 0,0.52767 0.42432,0.90625 0.9375,0.90625 l 0.0312,0 9.34375,0.0312 c 1.53955,-0.0725 2.78125,1.31291 2.78125,2.65625 -0.0746,6.47462 -0.93013,21.4053 -11.40625,37.15625 l -26.875,-31.1875 c 13.68993,-3.5772 20.46875,-13.35962 20.46875,-24.90625 0,-14.55027 -12.60149,-26.375 -31.90625,-26.375 z M 523.03125,686.5 c 11.01836,13.19184 23.42148,25.82453 34.0625,38.59375 -1.23768,0.966 -2.56716,1.82185 -4.03125,2.53125 -12.52772,6.06765 -26.68872,0.95822 -35.15625,-12.65625 -6.26386,-10.08255 -3.70478,-21.40493 5.125,-28.46875 z"
         id="path1348"
         style="fill:#b00063;fill-opacity:1;fill-rule:nonzero;stroke:none"
         inkscape:connector-curvature="0" />
      <path
         d="m 590.26749,589.42305 c -12.54281,-9.79577 -51.86174,-37.22092 -57.03886,-57.58223 -6.11293,-23.99889 10.49008,-47.96759 36.7681,-40.31511 3.27532,0.9358 5.53937,2.6112 2.95836,5.61483 -2.33952,2.33951 -3.8036,5.59974 -3.8036,9.20712 0,7.1091 5.66011,12.87487 12.63337,12.87487 7.00345,0 12.61829,-5.76577 12.64847,-12.87487 0.0483,-7.01854 -5.10165,-11.99944 -8.34678,-14.18802 -6.27895,-4.21113 -14.61064,-6.42989 -27.0478,-6.42989 -39.28874,0 -63.78572,24.64791 -63.78572,55.22762 0,18.29349 7.09401,29.23638 17.37278,37.86994 17.94634,15.10874 25.19128,22.14237 32.70792,28.34586 18.08218,14.91251 27.92323,27.95342 27.92323,36.51151 0,5.9167 -2.00746,10.94289 -6.05255,15.03326 -4.06019,4.12057 -13.70502,7.00345 -23.51589,4.63375 -2.92817,-0.71 -2.94326,-3.0942 -1.4188,-4.63375 4.513,-2.92816 7.51663,-8.06 7.51663,-13.91633 0,-9.08637 -7.22985,-16.45207 -16.15019,-16.45207 -8.92034,0 -16.16529,7.3657 -16.16529,16.45207 0,4.86015 2.06783,9.20712 5.34315,12.22585 0.9515,1.05655 2.64138,2.43007 5.23749,4.18093 6.27895,4.21113 14.05218,7.33551 26.48934,7.33551 l -0.13645,-0.0121 c 42.03578,0 52.46549,-19.33495 54.88047,-34.35313 2.29423,-14.38423 -2.62629,-31.98342 -19.01798,-44.75263"
         id="path1360"
         style="fill:#000000;fill-opacity:1;fill-rule:nonzero;stroke:none"
         inkscape:connector-curvature="0" />
      <path
         d="m 589.5625,629.125 c -0.77038,0 -1.40625,0.65157 -1.40625,1.40625 0,0.7402 0.57125,1.31462 1.28125,1.375 0.0121,0.0121 12.95365,0 12.96875,0 2.39989,0 4.125,1.88689 4.125,4 l 0.0937,156.4375 c 0,4.93562 1.89996,16.5 -11.59375,16.5 -2.55083,0 -3.56421,-2.59204 -2.28125,-3.875 3.83378,-2.43007 6.40625,-6.68725 6.40625,-11.5625 0,-7.5921 -6.17299,-13.75 -13.75,-13.75 -7.5921,0 -13.71875,6.1579 -13.71875,13.75 0,4.03 1.75402,7.63562 4.53125,10.15625 0.81505,0.87544 2.24998,2.03592 4.46875,3.5 5.32805,3.50173 11.9032,6.09375 22.46875,6.09375 35.61597,-0.029 44.46419,-16.12365 46.5,-28.625 0,0 1.25,-11.04566 1.25,-16.78125 l 0.0312,-131.84375 c 0,-2.11311 -0.79105,-4 1.59375,-4 0.71,-0.0604 1.28125,-0.63541 1.28125,-1.375 0,-0.75468 -0.62032,-1.40625 -1.375,-1.40625 l -10.71875,0 -52.15625,0 z m 113.375,28.96875 c -5.31337,-0.0394 -10.89118,0.49876 -16.59375,1.65625 -9.69012,1.97727 -15.28994,5.50763 -19.53125,9.71875 -2.20367,2.18858 -3.37585,3.80229 -3.84375,4.84375 -1.10124,2.00746 -1.52934,4.39752 -1.03125,6.8125 1.10123,5.44881 6.4262,8.94559 11.875,7.84375 5.44881,-1.10244 8.94559,-6.39495 7.84375,-11.84375 -0.55786,-2.76214 -2.18642,-5.04995 -4.375,-6.46875 -2.47536,-1.88671 -0.99258,-3.54251 1.4375,-4.75 16.3615,-8.18075 27.77147,0.23368 27.9375,19.28125 l -0.0312,0 0.0312,12.96875 c -7.54682,-0.66412 -47.8125,-2.93258 -47.8125,24.28125 0,20.25566 32.37382,22.84342 50.09375,8.1875 0.483,0.9515 1.00677,1.78954 1.625,2.46875 4.13566,4.60356 12.83135,6.98066 22.6875,6.875 7.92416,-0.0845 21.68151,0.38761 27.28125,-9.90625 0.0725,-0.10867 0.28125,-0.46474 0.28125,-0.8125 0.0121,-0.77038 -0.61971,-1.375 -1.375,-1.375 -0.58804,0 -1.10013,0.37736 -1.28125,0.90625 -0.90562,2.41498 -3.06226,4.53338 -7.9375,4.59375 -3.30551,-0.0604 -5.96875,-2.75805 -5.96875,-6.09375 l -0.0312,-38.84375 c -0.33062,-19.11892 -18.25663,-30.17292 -41.28125,-30.34375 z m 135.90625,6.84375 c -0.0483,0 -57.09375,0.0312 -57.09375,0.0312 l -5.4375,0 c -0.76917,0 -1.23915,0.65156 -1.375,1.40625 -0.0604,0.34775 -3.04379,13.91515 -3.84375,17.71875 0,0.0121 -0.0312,0.375 -0.0312,0.375 l 0,0.0312 c 0.0121,0.7402 0.50981,1.26829 1.25,1.34375 0.77038,0.0845 1.31781,-0.46938 1.46875,-1.375 0.16543,-0.90562 3.53562,-16.3125 16.53125,-16.3125 1.59992,0 5.16835,-0.0312 6.84375,-0.0312 l -33.9063,67.7813 c -0.0604,0.16663 -0.125,0.36689 -0.125,0.5625 0,0.75468 0.62032,1.28125 1.375,1.28125 0.0362,0 67.5625,0.0625 67.5625,0.0625 l 5.40625,0 c 0.77038,0 1.23916,-0.63648 1.375,-1.40625 0.0725,-0.34776 3.05889,-13.91516 3.84375,-17.71875 0,0 0.0625,-0.36051 0.0625,-0.375 l 0,-0.0312 c -0.0242,-0.73899 -0.51041,-1.25318 -1.25,-1.34375 -0.75468,-0.0845 -1.33397,0.45429 -1.5,1.375 -0.16664,0.89113 -3.53563,16.34375 -16.53125,16.34375 -1.35843,0 -10.12133,-0.0312 -17.5625,-0.0312 l 34.1875,-67.8125 c 0.0604,-0.15094 0.0937,-0.32008 0.0937,-0.5 0,-0.75468 -0.58907,-1.375 -1.34375,-1.375 z m 85.71875,0 c -0.0483,0 -57.09375,0.0312 -57.09375,0.0312 l -5.40625,0 c -0.77037,0 -1.27041,0.65156 -1.40625,1.40625 -0.0725,0.34775 -3.01254,13.91515 -3.8125,17.71875 0,0.0121 -0.0625,0.375 -0.0625,0.375 l 0,0.0312 c 0.0121,0.7402 0.50981,1.26829 1.25,1.34375 0.77038,0.0845 1.31781,-0.46938 1.46875,-1.375 0.16663,-0.90562 3.56688,-16.3125 16.5625,-16.3125 1.59993,0 5.16836,-0.0312 6.84375,-0.0312 l -33.9375,67.78125 c -0.0604,0.16663 -0.0937,0.36689 -0.0937,0.5625 0,0.75468 0.58907,1.28125 1.34375,1.28125 0.0362,0 67.5625,0.0625 67.5625,0.0625 l 5.40625,0 c 0.77038,0 1.2704,-0.63648 1.40625,-1.40625 0.0725,-0.34776 3.04379,-13.91516 3.84375,-17.71875 0,0 0.0312,-0.36051 0.0312,-0.375 l 0.0312,0 0,-0.0312 c -0.0483,-0.73899 -0.54166,-1.25318 -1.28125,-1.34375 -0.77037,-0.0845 -1.30272,0.45429 -1.46875,1.375 -0.16543,0.89113 -3.53563,16.34375 -16.53125,16.34375 -1.35843,0 -10.12133,-0.0312 -17.5625,-0.0312 l 34.1875,-67.8125 c 0.0604,-0.15094 0.0937,-0.32008 0.0937,-0.5 0,-0.75468 -0.62032,-1.375 -1.375,-1.375 z m -218.125,36.875 c 0,21.1009 -2.89941,26.2976 -8.03125,28.09375 -3.27532,1.14711 -10.15625,1.20611 -10.15625,-11.5625 0,-13.97671 18.1875,-16.53125 18.1875,-16.53125 z"
         id="path1362"
         style="fill:#87888a;fill-opacity:1;fill-rule:nonzero;stroke:none"
         inkscape:connector-curvature="0" />
      <path
         d="m 863.59375,524.5 c -0.13645,0 -0.2698,0.0141 -0.40625,0.0625 -0.0242,0.0121 -0.0767,0.0383 -0.125,0.0625 -0.13644,0.0604 -0.2855,0.14374 -0.40625,0.25 0,0.0121 0,0.0312 0,0.0312 -4.7545,4.63374 -9.83675,12.4434 -39.375,20.15625 0,0.0121 -0.14055,0.007 -0.15625,0.0312 -0.63393,0.12075 -1.15625,0.66454 -1.15625,1.34375 0,0.76917 0.63708,1.40625 1.40625,1.40625 l 0.1875,0 c 2.00745,0.0725 3.875,1.68748 3.875,3.90625 l 0,106.40625 c 0,2.21876 -1.80823,3.95579 -3.90625,4.03125 -0.0604,-0.0121 -0.15837,0 -0.21875,0 -0.77038,0 -1.375,0.62199 -1.375,1.40625 0,0.75468 0.57398,1.34375 1.34375,1.34375 l 0.1875,0 c 2.97344,0 64.89008,0.0312 67.09375,0.0312 l 0.0312,0 0.0312,0 c 0.73898,-0.0241 1.34375,-0.63541 1.34375,-1.375 0,-0.78486 -0.63647,-1.40625 -1.40625,-1.40625 -0.005,0.003 -0.0192,0 -0.0312,0 l -21.5,-0.0312 C 866.73702,662.26493 865,660.10227 865,658.125 c 0,-1.37352 0.0625,-2.38643 0.0625,-9.8125 l 0,-122.21875 c 0,-0.0483 -0.0312,-0.10551 -0.0312,-0.15625 0,-0.0241 0.0312,-0.0384 0.0312,-0.0625 0,-0.42262 -0.22938,-0.8053 -0.53125,-1.0625 -0.0604,-0.0604 -0.14389,-0.11399 -0.21875,-0.15625 -0.0483,-0.0241 -0.0898,-0.0384 -0.15625,-0.0625 -0.15093,-0.0604 -0.28763,-0.0937 -0.46875,-0.0937 0,0 -0.0383,0 -0.0625,0 -0.0121,0 0.005,0 -0.0312,0 z m -148.8125,66.25 c -0.78487,0 -1.40625,0.60462 -1.40625,1.375 0,0.73898 0.55615,1.31462 1.28125,1.375 0.0121,0.0121 0.0817,0.0312 0.0937,0.0312 2.39989,0 4.125,1.85564 4.125,3.96875 l 0,44.75 c 0,7.66757 1.3414,12.92855 3.9375,15.78125 4.12057,4.60356 12.83135,7.01191 22.6875,6.90625 8.02981,-0.10867 26.25379,-0.26842 31.6875,-11 -0.0483,1.67539 -0.18963,6.82886 -0.25,8.625 l 0,0.0937 c 0,0.84524 0.42963,1.59247 1.09375,2 0.0483,0.0362 0.10085,0.0504 0.125,0.0625 0.33206,0.18112 0.68562,0.28125 1.09375,0.28125 0.30187,0 0.60332,-0.0668 0.875,-0.1875 l 0.0625,0 c 3.13948,-0.96599 24.38195,-4.32419 34.34375,-4.65625 l 0.0625,0 c 0.77038,0 1.375,-0.63648 1.375,-1.40625 0,-0.74433 -0.60263,-1.34386 -1.34375,-1.375 l -0.0312,0 c -2.82251,-0.0121 -4.0625,-2.59842 -4.0625,-4.0625 -0.0966,-8.96562 -0.125,-56.53931 -0.125,-59.875 0,-2.97345 -2.75,-2.6875 -2.75,-2.6875 l -38.84375,0 -0.21875,0 c -0.77038,0 -1.3125,0.58907 -1.3125,1.34375 0,0.78487 0.62078,1.40625 1.40625,1.40625 0.0362,0 0.0827,0 0.125,0 2.00745,0.0604 3.96875,1.73702 3.96875,4.03125 l 0,40.40625 c 0,0.0604 0.0312,0.0983 0.0312,0.15625 l 0,11.875 c 0,0.57356 0.0427,1.97001 -0.625,3.78125 -0.92011,2.44517 -3.09882,4.59375 -8.125,4.59375 l -1.5,0 c -3.35079,0 -6.0625,-2.71278 -6.0625,-6.09375 0,0 0,-55.28059 0,-58.8125 0,-1.79614 -1.16917,-2.6875 -2.40625,-2.6875 l -39.3125,0 z M 664.25,591.40625 c -26.57989,0 -46.1875,15.68757 -46.1875,37.4375 0,21.76503 19.60761,41.34375 46.1875,41.34375 26.56481,0 44.8125,-18.40632 44.8125,-40.15625 0,-21.74994 -18.24769,-38.625 -44.8125,-38.625 z m 0,3.78125 c 4.69413,0 8.5,15.92674 8.5,35.59375 0,19.66701 -3.80587,35.625 -8.5,35.625 -4.70921,0 -8.5,-15.95799 -8.5,-35.625 0,-19.66701 3.79079,-35.59375 8.5,-35.59375 z"
         id="path1368"
         style="fill:#000000;fill-opacity:1;fill-rule:nonzero;stroke:none"
         inkscape:connector-curvature="0" />
    </g>
  </g>
</svg>
