<?xml version="1.0" encoding="UTF-8" standalone="no"?>
<!-- Created with Inkscape (http://www.inkscape.org/) -->

<svg
   xmlns:dc="http://purl.org/dc/elements/1.1/"
   xmlns:cc="http://creativecommons.org/ns#"
   xmlns:rdf="http://www.w3.org/1999/02/22-rdf-syntax-ns#"
   xmlns:svg="http://www.w3.org/2000/svg"
   xmlns="http://www.w3.org/2000/svg"
   xmlns:xlink="http://www.w3.org/1999/xlink"
   xmlns:sodipodi="http://sodipodi.sourceforge.net/DTD/sodipodi-0.dtd"
   xmlns:inkscape="http://www.inkscape.org/namespaces/inkscape"
   width="128"
   height="128"
   id="svg2"
   version="1.1"
   inkscape:version="0.48.2 r9819"
   sodipodi:docname="softradio.svg"
   inkscape:export-filename="C:\Users\H Janmaat\Documents\GitHub\softradio\icon_16.png"
   inkscape:export-xdpi="11.25"
   inkscape:export-ydpi="11.25">
  <defs
     id="defs4">
    <linearGradient
       inkscape:collect="always"
       id="linearGradient3019">
      <stop
         style="stop-color:#f16529;stop-opacity:1"
         offset="0"
         id="stop3021" />
      <stop
         style="stop-color:#ffffff;stop-opacity:0"
         offset="1"
         id="stop3023" />
    </linearGradient>
    <linearGradient
       inkscape:collect="always"
       xlink:href="#linearGradient3019"
       id="linearGradient3025"
       x1="18.745842"
       y1="10.634713"
       x2="162.19231"
       y2="161.43118"
       gradientUnits="userSpaceOnUse"
       gradientTransform="matrix(0.99973734,0.02332643,-0.02292278,0.99972794,-21.188938,924.11072)" />
  </defs>
  <sodipodi:namedview
     id="base"
     pagecolor="#ffffff"
     bordercolor="#666666"
     borderopacity="1.0"
     inkscape:pageopacity="0.0"
     inkscape:pageshadow="2"
     inkscape:zoom="3.863427"
     inkscape:cx="64.190344"
     inkscape:cy="63.042255"
     inkscape:document-units="px"
     inkscape:current-layer="layer1"
     showgrid="false"
     inkscape:window-width="1066"
     inkscape:window-height="769"
     inkscape:window-x="2103"
     inkscape:window-y="193"
     inkscape:window-maximized="0" />
  <metadata
     id="metadata7">
    <rdf:RDF>
      <cc:Work
         rdf:about="">
        <dc:format>image/svg+xml</dc:format>
        <dc:type
           rdf:resource="http://purl.org/dc/dcmitype/StillImage" />
        <dc:title></dc:title>
      </cc:Work>
    </rdf:RDF>
  </metadata>
  <g
     inkscape:label="Layer 1"
     inkscape:groupmode="layer"
     id="layer1"
     transform="translate(0,-924.36218)">
    <path
       inkscape:connector-curvature="0"
       id="path3009"
       d="m 114.14343,931.21278 c -76.737223,80.76622 -38.368609,40.38313 0,0 z M 10.763662,1043.1506 c -1.19539,-0.6964 -1.281523,-3.3967 -1.281523,-40.1759 0,-44.58928 -0.6909092,-40.31837 6.522306,-40.31837 3.300756,0 12.623276,-2.50268 43.328807,-11.63185 21.517752,-6.39751 42.042438,-12.38851 45.610428,-13.31334 3.56799,-0.92481 6.94515,-2.13936 7.50479,-2.699 0.86849,-0.8685 1.12495,-0.73493 1.7511,0.91193 0.98026,2.5783 0.93559,2.80062 -0.4554,2.26685 -0.65392,-0.25094 -6.50317,1.31902 -12.9983,3.4888 -6.495125,2.16978 -24.467053,7.69478 -39.9376,12.27776 l -28.128271,8.3327 41.974197,0.18913 c 29.517414,0.13299 42.265964,0.43126 42.957314,1.00503 0.80015,0.66406 0.98312,8.08617 0.98312,39.87846 0,37.8705 -0.0432,39.0857 -1.41646,39.8206 -1.94044,1.0385 -104.629552,1.0067 -106.414508,-0.033 z m 39.361051,-6.7918 c 5.344983,-2.4962 8.05503,-5.0942 10.575836,-10.1388 1.910751,-3.8238 2.238345,-5.2971 2.232237,-10.0397 -0.0092,-7.1336 -1.990534,-11.6159 -7.208448,-16.30729 -8.507502,-7.64896 -20.899327,-7.73876 -29.270782,-0.21206 -5.336151,4.79765 -7.451534,9.47605 -7.451534,16.47995 0,9.4635 4.576068,16.5099 13.289712,20.4638 4.689868,2.1282 12.99472,2.0136 17.832979,-0.2459 z m -16.859117,-3.3074 c -6.483517,-2.9452 -10.83999,-9.7521 -10.83999,-16.9373 0,-12.4992 12.174531,-21.15258 24.545215,-17.44629 3.773286,1.13058 8.871358,5.68419 10.781699,9.63049 1.987817,4.1063 2.049989,11.3788 0.132538,15.505 -1.693696,3.6446 -6.158968,7.9878 -9.750644,9.4841 -3.730549,1.5541 -11.188798,1.4357 -14.868818,-0.236 z m 44.586609,2.3688 c 2.707851,-2.7079 2.625643,-6.2746 -0.20996,-9.1102 -1.460936,-1.461 -2.873853,-2.1406 -4.450122,-2.1406 -1.576269,0 -2.989197,0.6796 -4.450122,2.1406 -1.460936,1.4609 -2.140568,2.8738 -2.140568,4.4501 0,1.5763 0.679632,2.9892 2.140568,4.4501 2.835603,2.8356 6.402353,2.9178 9.110204,0.21 z m 32.687145,-33.8737 c 0,-3.92734 -0.2571,-5.14642 -1.15834,-5.49223 -0.63709,-0.24448 -8.51897,-0.4445 -17.515275,-0.4445 -8.996312,0 -16.878188,0.20002 -17.515271,0.4445 -0.901239,0.34581 -1.158341,1.56489 -1.158341,5.49223 l 0,5.0477 18.673612,0 18.673615,0 z m 1.3032,-21.75657 c 0.1587,-6.8695 -0.0244,-9.05317 -0.81396,-9.70846 -0.75177,-0.62392 -13.182343,-0.79603 -47.438009,-0.65687 l -46.419306,0.18856 -0.207534,8.74495 c -0.114136,4.80973 -0.04115,9.17849 0.162161,9.70835 0.301319,0.78523 9.075135,0.92854 47.440796,0.77494 l 47.071102,-0.18847 z m -26.201353,4.52291 0,-4.08134 -32.953438,0 c -32.465245,0 -32.953439,-0.0217 -32.953439,-1.4646 0,-1.4429 0.488194,-1.4646 32.953439,-1.4646 l 32.953438,0 0,-3.29534 c 0,-2.80715 0.216984,-3.29535 1.464599,-3.29535 1.246321,0 1.464599,0.4882 1.464599,3.27577 l 0,3.27576 10.801399,0.20267 c 9.022976,0.16927 10.801406,0.38349 10.801406,1.30109 0,0.91739 -1.77415,1.13181 -10.763806,1.30088 l -10.763804,0.20243 -0.220679,3.81836 c -0.170354,2.9479 -0.512805,3.87388 -1.502191,4.06198 -1.096349,0.20842 -1.281523,-0.34612 -1.281523,-3.83771 z"
       style="fill:#333333;fill-opacity:1"
       sodipodi:nodetypes="cccsssssscsscssscccsssssscssscsscsccscsscscscscccsssscscscsscssscssscssscscs" />
    <path
       inkscape:connector-curvature="0"
       id="path3009-1"
       d="m 328.57976,920.99301 c -52.88632,-9.577 -86.48328,-61.8256 -72.75652,-113.14808 6.7477,-25.22869 25.42522,-47.71545 48.82457,-58.78225 6.62565,-3.13363 17.50501,-6.61066 24.72156,-7.901 8.99103,-1.60762 25.33074,-1.26225 34.41804,0.72748 36.4574,7.98263 63.59977,35.04377 71.46054,71.24665 1.81283,8.3491 2.14304,23.0304 0.71376,31.7344 -2.11134,12.8576 -7.16156,25.9484 -13.98483,36.2504 -13.69872,20.683 -35.01492,34.7898 -59.86311,39.6168 -8.58899,1.6685 -25.03954,1.7938 -33.53401,0.2556 z m 35.35271,-12.68 c 18.70462,-4.9191 33.86516,-14.9722 45.42477,-30.1216 4.74187,-6.2143 11.14,-19.3428 13.02636,-26.7289 7.97537,-31.2279 -3.31855,-63.99823 -28.62935,-83.07049 -22.10632,-16.65761 -51.68521,-21.02118 -77.26669,-11.39863 -26.85004,10.09973 -46.87375,34.71324 -50.8758,62.53752 -1.32636,9.2215 -0.50564,23.6935 1.82305,32.1466 8.1369,29.5368 32.56303,51.8234 63.14672,57.6159 8.13075,1.5399 25.73545,1.0225 33.35094,-0.9804 z m -73.558,-27.9832 c -1.19539,-0.6964 -1.28152,-3.3967 -1.28152,-40.1759 0,-44.58925 -0.69091,-40.31834 6.52231,-40.31834 3.30075,0 12.62327,-2.50268 43.3288,-11.63185 21.51776,-6.39751 42.04245,-12.38851 45.61044,-13.31334 3.56799,-0.92481 6.94515,-2.13936 7.50479,-2.699 0.86849,-0.8685 1.12495,-0.73493 1.7511,0.91193 0.98026,2.5783 0.93559,2.80062 -0.4554,2.26685 -0.65392,-0.25094 -6.50317,1.31902 -12.9983,3.4888 -6.49513,2.16978 -24.46706,7.69478 -39.93761,12.27776 l -28.12827,8.3327 41.9742,0.18913 c 29.51742,0.13299 42.26597,0.43126 42.95732,1.00503 0.80015,0.66406 0.98312,8.08617 0.98312,39.87843 0,37.8705 -0.0432,39.0857 -1.41646,39.8206 -1.94044,1.0385 -104.62956,1.0067 -106.41452,-0.033 z m 39.36105,-6.7918 c 5.34499,-2.4962 8.05503,-5.0942 10.57584,-10.1388 1.91075,-3.8238 2.23834,-5.2971 2.23224,-10.0397 -0.009,-7.1336 -1.99054,-11.6159 -7.20845,-16.3073 -8.5075,-7.6489 -20.89933,-7.7387 -29.27078,-0.212 -5.33615,4.7976 -7.45154,9.476 -7.45154,16.4799 0,9.4635 4.57607,16.5099 13.28971,20.4638 4.68987,2.1282 12.99472,2.0136 17.83298,-0.2459 z m -16.85911,-3.3074 c -6.48352,-2.9452 -10.83999,-9.7521 -10.83999,-16.9373 0,-12.4992 12.17453,-21.1525 24.54521,-17.4463 3.77329,1.1306 8.87136,5.6842 10.7817,9.6305 1.98782,4.1063 2.04999,11.3788 0.13254,15.505 -1.6937,3.6446 -6.15897,7.9878 -9.75065,9.4841 -3.73054,1.5541 -11.18879,1.4357 -14.86881,-0.236 z m 44.58661,2.3688 c 2.70785,-2.7079 2.62564,-6.2746 -0.20996,-9.1102 -1.46094,-1.461 -2.87386,-2.1406 -4.45012,-2.1406 -1.57628,0 -2.9892,0.6796 -4.45013,2.1406 -1.46093,1.4609 -2.14057,2.8738 -2.14057,4.4501 0,1.5763 0.67964,2.9892 2.14057,4.4501 2.8356,2.8356 6.40236,2.9178 9.11021,0.21 z m 32.68715,-33.8737 c 0,-3.9273 -0.2571,-5.1464 -1.15834,-5.4922 -0.63709,-0.2445 -8.51897,-0.4445 -17.51528,-0.4445 -8.99631,0 -16.87819,0.2 -17.51527,0.4445 -0.90124,0.3458 -1.15834,1.5649 -1.15834,5.4922 l 0,5.0477 18.67361,0 18.67362,0 0,-5.0477 z m 1.3032,-21.7565 c 0.1587,-6.86954 -0.0244,-9.05321 -0.81396,-9.7085 -0.75177,-0.62392 -13.18235,-0.79603 -47.43802,-0.65687 l -46.4193,0.18856 -0.20754,8.74491 c -0.11413,4.8098 -0.0412,9.1785 0.16216,9.7084 0.30132,0.7852 9.07514,0.9285 47.4408,0.7749 l 47.07111,-0.1884 0.20475,-8.863 z m -26.20136,4.5229 0,-4.0814 -32.95344,0 c -32.46525,0 -32.95344,-0.022 -32.95344,-1.4646 0,-1.4429 0.48819,-1.4646 32.95344,-1.4646 l 32.95344,0 0,-3.29531 c 0,-2.80715 0.21698,-3.29535 1.4646,-3.29535 1.24632,0 1.4646,0.4882 1.4646,3.27577 l 0,3.27579 10.8014,0.2026 c 9.02298,0.1693 10.80141,0.3835 10.80141,1.3011 0,0.9174 -1.77415,1.1318 -10.76381,1.3009 l -10.76381,0.2024 -0.22068,3.8184 c -0.17035,2.9479 -0.5128,3.8739 -1.50219,4.062 -1.09635,0.2084 -1.28152,-0.3461 -1.28152,-3.8377 z m -67.1884,-85.18335 c 26.07898,-0.10663 68.75369,-0.10663 94.83268,0 26.07898,0.10661 4.74163,0.19385 -47.41634,0.19385 -52.15798,0 -73.49533,-0.0872 -47.41634,-0.19385 z"
       style="fill:#060606" />
    <polygon
       transform="matrix(0.40792331,0,0,0.40792331,446.71965,713.37239)"
       style="fill:#e44d26"
       points="437.367,100.62 404.321,470.819 255.778,512 107.644,470.877 74.633,100.62 "
       id="polygon6" />
    <polygon
       transform="matrix(0.40792331,0,0,0.40792331,446.71965,713.37239)"
       style="fill:#f16529"
       points="256,130.894 256,480.523 376.03,447.246 404.27,130.894 "
       id="polygon8" />
    <polygon
       transform="matrix(0.40792331,0,0,0.40792331,446.71965,713.37239)"
       style="fill:#ebebeb"
       points="143.219,188.488 154.38,313.627 256,313.627 256,268.217 195.91,268.217 191.76,221.716 256,221.716 256,176.305 255.843,176.305 142.132,176.305 "
       id="polygon10" />
    <polygon
       transform="matrix(0.40792331,0,0,0.40792331,446.71965,713.37239)"
       style="fill:#ebebeb"
       points="255.791,433.457 256,433.399 256,386.153 255.801,386.206 205.227,372.55 201.994,336.333 177.419,336.333 156.409,336.333 162.771,407.634 "
       id="polygon12" />
    <path
       inkscape:connector-curvature="0"
       d="m 490.9312,713.37239 h 9.41365 v 9.30065 h 8.61126 v -9.30065 h 9.41405 v 28.16466 h -9.41365 v -9.43119 h -8.61126 v 9.43119 h -9.41364 v -28.16466 z"
       id="path14" />
    <path
       inkscape:connector-curvature="0"
       d="m 530.74941,722.7122 h -8.28737 v -9.33981 h 25.99287 v 9.33981 h -8.29104 v 18.82485 h -9.41405 V 722.7122 z"
       id="path16" />
    <path
       inkscape:connector-curvature="0"
       d="m 552.58024,713.37239 h 9.81586 l 6.03808,9.89622 6.03196,-9.89622 h 9.81953 v 28.16466 h -9.37489 V 727.5771 l -6.4766,10.0141 h -0.16194 l -6.48109,-10.0141 v 13.95995 h -9.21091 v -28.16466 z"
       id="path18" />
    <path
       inkscape:connector-curvature="0"
       d="m 588.97067,713.37239 h 9.4165 v 18.85503 h 13.23834 v 9.30963 h -22.65484 v -28.16466 z"
       id="path20" />
    <polygon
       transform="matrix(0.40792331,0,0,0.40792331,446.71965,713.37239)"
       style="fill:#ffffff"
       points="349.62,399.962 360.291,280.411 361.399,268.217 349.162,268.217 255.843,268.217 255.843,313.627 311.761,313.627 306.49,372.521 255.843,386.191 255.843,433.435 348.937,407.634 "
       id="polygon22" />
    <polygon
       transform="matrix(0.40792331,0,0,0.40792331,446.71965,713.37239)"
       style="fill:#ffffff"
       points="366.442,211.509 368.511,188.488 369.597,176.305 255.843,176.305 255.843,204.509 255.843,221.605 255.843,221.716 365.385,221.716 365.385,221.716 365.531,221.716 "
       id="polygon24" />
    <path
       sodipodi:type="arc"
       style="opacity:0;fill:#ff0000;fill-opacity:1;stroke:none"
       id="path3027"
       sodipodi:cx="132.85098"
       sodipodi:cy="140.22556"
       sodipodi:rx="79.058563"
       sodipodi:ry="39.121761"
       d="m 211.90955,140.22556 c 0,21.60635 -35.39573,39.12176 -79.05857,39.12176 -43.662836,0 -79.058561,-17.51541 -79.058561,-39.12176 0,-21.60636 35.395725,-39.12177 79.058561,-39.12177 43.49233,0 78.81703,17.38394 79.05736,38.90558"
       transform="translate(0,924.36218)"
       sodipodi:start="0"
       sodipodi:end="6.2776594"
       sodipodi:open="true" />
  </g>
</svg>
